<svg version="1.2" xmlns="http://www.w3.org/2000/svg" viewBox="0 0 1024 796" width="1024" height="796"><style>.a{fill:none;stroke:#000;stroke-width:2}.b{fill:#bcbbbb}.c{fill:#f48023}.d{fill:none;stroke:#000;stroke-width:1.9}</style><path class="a" d="m376 199.6c-12.7 8.9-24.6 19.1-34.9 30.8"/><path class="a" d="m340.8 230.7c-7.8 9.1-14.6 18.8-20 29.5"/><path class="a" d="m523.7 130.7c-8.6-6-20.2-6-28.8 0"/><path class="a" d="m589.5 76.4c-12.7 8.9-24.6 19.1-34.9 30.8"/><path class="a" d="m554.3 107.5c-7.8 9.1-14.6 18.8-20 29.5"/><path class="a" d="m299 542.3c1.8-14.3 3.7-29.1 5.3-44.6"/><path class="a" d="m304.4 497.5c1.5-14.1 2.8-28.6 3.9-42.9"/><path class="a" d="m308.3 454.6q0-0.2 0-0.5"/><path class="a" d="m308.3 454.1c1.2-16.8 2.1-33.8 2.7-50.4"/><path class="a" d="m280.1 403.7c0.6 16.5 1.5 33.6 2.7 50.4"/><path class="a" d="m282.9 454.6c1 14.7 2.4 29.1 3.9 42.9"/><path class="a" d="m286.8 497.7c1.7 15.5 3.5 30.3 5.3 44.6"/><path class="a" d="m311 403.7c-1.3-2.9-3.4-5.8-6.4-7.1"/><path class="a" d="m280.1 403.7c1.3-2.9 3.5-5.8 6.4-7.1"/><path class="a" d="m108.7 394.9c-6.3 10.3-11.4 21.3-15.4 32.6"/><path class="a" d="m166.5 338.1c-22.7 14.9-43.5 33.4-57.7 56.7"/><path class="a" d="m222.8 371.9q-28.2-16.7-56.3-33.8"/><path class="a" d="m424.9 338c12.7 8.3 24.7 17.7 35.4 28.4l0.2 0.3c8.8 8.9 16 18.1 22.1 27.9"/><path class="a" d="m498 427.4c-3.9-11.4-9.1-22.3-15.3-32.6"/><path class="a" d="m166.5 338.1c1.4-2.9 3.6-5.7 6.6-7"/><path class="a" d="m424.9 338c-1.4-2.9-3.6-5.7-6.6-7.1"/><path class="a" d="m360.9 288.9c19 10.7 38.1 21.2 57.4 31.6 7.1 2.5 6.9 7.9 0 10.4-38 22-75.9 43.9-113.7 65.7-5.4 4.1-12.6 4.1-18.1 0-18.6-10.8-37.3-21.6-56.1-32.4"/><path class="b" d="m348.5 359.5q-22.1 12.4-44.3 23.9-19.2-9.3-38.4-19.6 4.8-2.1 9.6-4.4 14.4 7.6 28.8 14.5 17.4-8.8 34.8-18.4l0.2-0.2q16.1-9.7 32.2-20-14.4-6.8-28.8-14.4 4.8-3.2 9.5-6.6 19.3 10.2 38.4 19.4-20.9 13.2-41.7 25.7z"/><path class="c" d="m319.9 346.3q11.3-6.8 22.6-14.1 4.7 2.4 9.5 4.7-11.2 7.2-22.5 14l-0.2 0.2q-12.6 6.9-25.2 13.3-4.8-2.3-9.6-4.7 12.6-6.3 25.2-13.3z"/><path class="c" d="m302.9 337.3c9.9-3.8 19.8-8 29.6-12.5q3.7 3.1 7.5 6.2c-9.1 4.1-18.2 8-27.2 11.6l-0.3 0.1q-14.7 5.5-29.3 10.2-3.7-3-7.5-6.1 13.5-4.3 26.9-9.4z"/><path class="c" d="m325.9 293.4q-1 4.5-2 8.9c-22.3-1.3-44.7-3.6-67-7.1q1-4.4 2-8.8c22.2 3.5 44.7 5.8 67 7z"/><path class="a" d="m230.4 364.2c-19-11-38.1-22.1-57.3-33.1-7-2.6-7.2-8 0-10.4 38.6-20.7 76.5-42.5 113.7-65.6 5.3-4.4 12.6-4.4 18 0 18.6 11.4 37.3 22.7 56.1 33.8"/><path class="c" d="m283.2 325.8c14.3-3 28.7-6.2 42.9-10.1q2.4 3.9 4.9 7.7c-10.7 3-21.4 5.7-32.1 8.1l-4.9 1c-10 2.1-19.9 3.8-29.9 5.2q-2.6-3.9-5.2-8c8-1.1 16-2.4 23.9-3.9z"/><path class="c" d="m268.6 316.7q-5.4 0-10.9 0c-0.4-2.7-0.8-5.6-1.2-8.4 22.5-0.2 45.1-1.4 67.6-3.6q0.6 4.4 1.2 8.7c-18.7 1.7-37.5 2.8-56.2 3.3z"/><path class="a" d="m512.5 419.1c1.8-14.3 3.7-29.1 5.3-44.6"/><path class="a" d="m517.9 374.2c1.5-14.1 2.8-28.5 3.9-42.9"/><path class="a" d="m521.8 331.3q0-0.2 0-0.4"/><path class="a" d="m521.8 330.9c1.2-16.9 2.1-33.9 2.7-50.4"/><path class="a" d="m505.7 419.1c-1.9-14.3-3.7-29.1-5.4-44.6v-0.2c-1.5-13.8-2.9-28.3-3.9-43l-0.1-0.4c-1.2-16.9-2.1-33.9-2.7-50.4"/><path class="a" d="m436.4 248.6q28.5 16.2 57.2 31.9"/><path class="a" d="m493.6 280.5c9 3.8 21.9 3.8 30.9 0"/><path class="a" d="m518.1 273.3c-5.4 4.2-12.6 4.2-18.1 0"/><path class="a" d="m524.5 280.5c-1.3-3-3.4-5.8-6.4-7.2"/><path class="a" d="m493.6 280.5c1.3-3 3.5-5.8 6.4-7.2"/><path class="a" d="m550.9 231.3q-0.1 0.1-0.3 0.1"/><path class="a" d="m550.6 231.4c-11.6 5.4-24.5 7.6-37.3 7.7"/><path class="a" d="m500 273.3c-18.6-10.7-37.3-21.5-56.1-32.3"/><path class="a" d="m513.3 239.1c-14.3 0.1-29-2.6-41.8-9.5"/><path class="a" d="m380 214.9c-12.7 8.3-24.7 17.7-35.4 28.4"/><path class="a" d="m436.4 248.6q-28.3-16.6-56.4-33.7"/><path class="a" d="m673.8 243.2c-10.7-10.8-22.7-20.1-35.4-28.4"/><path class="a" d="m674 243.5q-0.1-0.2-0.2-0.3"/><path class="a" d="m696.1 271.4c-6.1-9.8-13.3-19-22.1-27.9"/><path class="a" d="m711.5 304.2c-3.9-11.4-9.1-22.3-15.3-32.6"/><path class="a" d="m638.4 214.8q-56.1 34.4-113.9 65.7"/><path class="a" d="m533 223.1c-6.2 2.4-13 3.4-19.7 3.4-8.3 0.1-16.9-1.4-24.3-5.4"/><path class="a" d="m380 214.9c1.4-2.9 3.6-5.7 6.6-7"/><path class="a" d="m386.6 207.9c19.2 11 38.3 22.1 57.3 33.1"/><path class="a" d="m631.8 207.7c-38 22-75.9 43.8-113.7 65.6"/><path class="a" d="m638.4 214.8c-1.4-3-3.6-5.8-6.6-7.1"/><path class="a" d="m471.1 229.4c-8.9-5.3-17.6-13.8-17.4-24.8"/><path class="a" d="m471.5 229.6q-0.2-0.1-0.4-0.2"/><path class="a" d="m386.6 197.4c-7.2 2.5-7 7.9 0 10.5"/><path class="a" d="m453.7 204.6c-0.2-9.1 5.7-16.9 13-21.7"/><path class="a" d="m571.4 212.1c-2.9 7.3-9.2 12.6-15.8 16.6"/><path class="a" d="m547.3 210.7c1.6-3.5 1.4-7.3-0.5-10.7 7.9-2 15.8-4.1 23.6-6.4 3.1 5.6 3.5 12.5 1 18.5"/><path class="a" d="m538.1 220.5c4-2.5 7.5-5.7 9.2-9.8"/><path class="a" d="m533.2 223q2.6-1.2 4.9-2.5"/><path class="a" d="m631.8 197.3c-19.3-10.4-38.4-20.9-57.4-31.6"/><path class="a" d="m631.8 207.7c6.9-2.5 7.1-8 0-10.4"/><path class="a" d="m555.6 228.7q-2.3 1.4-4.7 2.6"/><path class="a" d="m533 223.1q0.1-0.1 0.2-0.1"/><path class="a" d="m484.3 195c-3.4 2.7-6 6.8-5.9 11.3"/><path class="a" d="m478.4 206.3c0 6.5 5 11.5 10.2 14.6"/><path class="a" d="m488.6 220.9q0.2 0.1 0.4 0.2"/><path class="a" d="m484.5 194.8q-0.1 0.1-0.2 0.2"/><path class="a" d="m500.3 131.8c-37.2 23.2-75.1 45-113.7 65.6"/><path class="a" d="m500.3 131.8c5.3-4.3 12.6-4.3 18 0"/><path class="a" d="m518.3 131.8c18.6 11.5 37.3 22.8 56.1 33.9"/><path class="a" d="m488.6 191.9q-2.2 1.3-4.1 2.9"/><path class="a" d="m504.1 186.3c-5.5 0.9-10.9 2.7-15.5 5.6"/><path class="a" d="m498.4 170.6c10.2-1.5 20.7-1.6 30.9 0.1q-3.6 7.9-7.7 15.6c-5.7-1-11.8-0.9-17.5 0"/><path class="a" d="m471.1 179.9c8.3-5.1 17.7-7.9 27.3-9.3"/><path class="a" d="m466.9 182.7q2-1.5 4.2-2.8"/><path class="a" d="m726 295.8c1.8-14.2 3.7-29 5.3-44.5"/><path class="a" d="m731.4 251c3.4-30.7 5.5-62.9 6.6-93.7"/><path class="a" d="m707.1 157.3c1.1 30.5 3.3 63.5 6.7 93.7"/><path class="a" d="m713.8 251.3c1.7 15.5 3.5 30.3 5.4 44.5"/><path class="a" d="m649.9 125.4q28.5 16.2 57.2 31.9"/><path class="a" d="m466.7 182.9q0.1-0.1 0.2-0.2"/><path class="a" d="m707.1 157.3c9 3.8 21.9 3.8 30.9 0"/><path class="a" d="m726 295.8c-2 1.1-4.9 1.1-6.8 0"/><path class="a" d="m731.6 150.1c-5.4 4.2-12.6 4.2-18.1 0"/><path class="a" d="m738 157.3c-1.3-3-3.4-5.8-6.4-7.2"/><path class="a" d="m707.1 157.3c1.3-3 3.5-5.8 6.4-7.2"/><path class="a" d="m713.5 150.1c-18.6-10.8-37.3-21.5-56.1-32.3"/><path class="a" d="m764.1 108.2q-5.2 2.9-10.4 5.7c-18.3-3.8-36.7-8.6-55-14"/><path class="a" d="m719.2 295.8c1.9 1.3 4.8 1.3 6.8 0"/><path class="a" d="m593.5 91.7c-12.7 8.3-24.7 17.7-35.4 28.4"/><path class="a" d="m649.9 125.4q-28.3-16.6-56.4-33.7"/><path class="a" d="m925 181c-12.3-37.6-39.9-68.4-73.1-89.4"/><path class="a" d="m851.9 91.6q-56.1 34.4-113.9 65.7"/><path class="a" d="m593.5 91.7c1.4-3 3.6-5.7 6.6-7.1"/><path class="a" d="m600.1 84.6c19.2 11.1 38.3 22.2 57.3 33.2"/><path class="a" d="m851.9 91.6c-1.4-3-3.6-5.8-6.6-7.1"/><path class="a" d="m600.1 74.2c-7.2 2.4-7 7.9 0 10.4"/><path class="a" d="m698.7 99.9c-18.5-6.1-36.9-13.1-55.3-20q9.5-4.8 18.9-9.8c18.2 7.4 36.6 14.3 54.9 19.9"/><path class="a" d="m787.9 42.5c19 10.7 38.1 21.2 57.4 31.6 7.1 2.4 6.9 7.8 0 10.4-38 22-75.9 43.8-113.7 65.6"/><path class="a" d="m746.6 72.2c9.3 10.7 18.6 20.7 27.8 29.8q-5 3.1-10 6.1"/><path class="a" d="m728.2 83.7q5.7 6.4 11.4 12.4l-0.2 0.2q-11.1-3-22.2-6.3"/><path class="a" d="m600.1 74.2c38.6-20.6 76.5-42.5 113.7-65.6 5.3-4.4 12.6-4.4 18 0 18.6 11.4 37.3 22.7 56.1 33.9"/><path class="a" d="m728.2 83.7c-9.5-10.8-18.9-22.8-28.3-35.2q9.4-6 18.9-12.1c9.2 12.2 18.5 24.4 27.8 35.8"/><path class="a" d="m166.5 338.1c-5.1-2.9-10.1-11-4-15.3"/><path class="a" d="m428.9 322.7c6 4.3 1 12.3-4 15.3q-56.1 34.4-113.9 65.7c-32.5 11.5-60.1-20-88.2-31.8"/><path class="a" d="m167.5 319.6c1.8-1.2 4 0 5.6 1.1"/><path class="a" d="m423.8 319.5c-1.7-1.2-3.9 0-5.5 1"/><path class="a" d="m281.4 253.9c1.7-1.1 3.8 0.1 5.4 1.2"/><path class="a" d="m310.2 253.9c-1.7-1.1-3.8 0.1-5.4 1.2"/><path class="a" d="m344.3 243.6c-6.3 6.5-12 13-16.8 20.5"/><path class="a" d="m380 214.9c-5.1-3-10.1-11.1-4-15.3"/><path class="a" d="m642.4 199.5c6 4.2 1 12.3-4 15.3"/><path class="a" d="m381 196.4c1.8-1.2 4 0 5.6 1"/><path class="a" d="m637.3 196.3c-1.7-1.2-3.9 0-5.5 1"/><path class="a" d="m494.9 130.7c1.7-1.1 3.8 0.1 5.4 1.1"/><path class="a" d="m523.7 130.7c-1.7-1.1-3.8 0.1-5.4 1.1"/><path class="a" d="m557.8 120.4c-6.3 6.5-12 13-16.8 20.4"/><path class="a" d="m593.5 91.7c-5.1-3-10.1-11.1-4-15.4"/><path class="a" d="m855.9 76.2c6 4.3 1 12.4-4 15.4"/><path class="a" d="m594.5 73.2c1.8-1.2 4 0 5.6 1"/><path class="a" d="m850.8 73c-1.7-1.1-3.9 0.1-5.5 1.1"/><path class="a" d="m708.4 7.5c1.7-1.2 3.8 0.1 5.4 1.1"/><path class="a" d="m737.2 7.5c-1.7-1.2-3.8 0.1-5.4 1.1"/><path class="a" d="m381 196.4l-4.7 2.9"/><path class="a" d="m642.1 199.2l-4.8-3"/><path class="a" d="m637.3 196.2l-56.4-32.4"/><path class="a" d="m341 230.5l-0.2 0.3"/><path class="a" d="m494.9 130.7c-28.4 16.4-85.4 49.3-113.9 65.7"/><path class="a" d="m580.9 163.8l-57.2-33.1"/><path class="a" d="m594.5 73.1l-4.7 3"/><path class="a" d="m554.5 107.2l-0.2 0.3"/><path class="a" d="m594.5 73.1c28.5-16.3 85.5-49.2 113.9-65.7 8.6-5.9 20.2-5.9 28.8 0l57.2 33.1"/><path class="a" d="m1022 395.4v-142.8"/><path class="a" d="m304.3 497.7l0.1-0.2"/><path class="a" d="m282.8 454.1l0.1 0.5"/><path class="a" d="m286.8 497.5v0.2"/><path class="a" d="m367.4 287c28.2 16.4 76.1 40.4 96.4 66.5l0.2 0.3c17.8 20.3 29.5 45.1 35.6 71.1 1 4-199.1 114.9-200.6 117.4-2 1.2-4.9 1.3-6.9 0l-198.8-114.8c8-93.2 120.2-129.9 188.1-173.6 8.6-6 20.2-6 28.8 0l57.2 33.1"/><path class="a" d="m101.8 394.8l-91.7 52.8"/><path class="a" d="m313.5 645.4v142.9"/><path class="a" d="m352.9 788.3v-142.9"/><path class="d" d="m10.1 613.1v-142.8"/><path class="d" d="m1013.8 264v142.7"/><path class="a" d="m295.6 543.2v16.5"/><path class="a" d="m438.3 461.9v15.5l-142.7 82.3-142.5-82.2v-15.5"/><path class="a" d="m108.8 394.8l-0.1 0.1"/><path class="a" d="m482.7 394.8l-0.1-0.2"/><path class="a" d=""/><path class="a" d="m517.8 374.5l0.1-0.3"/><path class="a" d="m642.3 199.5c35.6 23.8 61.7 60.4 70.8 102.2 1 4-199.1 114.9-200.6 117.4-4.8 3.5-11.8-3.7-16-5.3"/><path class="a" d="m509.1 420v16.5"/><path class="a" d="m651.8 338.7v15.4l-142.7 82.4-13.4-7.7"/><path class="a" d="m344.6 243.3l-0.3 0.3"/><path class="a" d="m696.2 271.6l-0.1-0.2"/><path class="a" d="m376 199.6l0.6-0.4"/><path class="a" d="m641.9 199.1l0.5 0.4"/><path class="a" d="m731.3 251.3l0.1-0.3"/><path class="a" d="m713.8 251v0.3"/><path class="a" d="m710 290.5l9.2 5.3"/><path class="a" d="m764.4 108.1l-0.3 0.1"/><path class="a" d="m722.6 296.8v16.4"/><path class="a" d="m865.3 215.5v15.4l-142.7 82.4-13.4-7.8"/><path class="a" d="m558.1 120.1l-0.3 0.3"/><path class="a" d="m589.5 76.3l0.6-0.3"/><path class="a" d="m794.4 40.5c61.2 33.1 116.4 64.1 132.2 138 1 4-199.1 114.9-200.6 117.3"/><path class="a" d="m917.2 185.5l96.6 55.8c9.9 6.3 11.9 17.1 0 22.7l-660.9 381.4c-12.4 6.5-27 6.5-39.4 0l-303.4-175.1c-10.9-6.2-10.6-16.4 0-22.7"/><path class="a" d="m1022 395.4c-0.4 5-3.6 9.3-8.2 11.3l-660.9 381.5c-12.4 6.4-27 6.4-39.4 0l-303.4-175.1c-4.5-2.1-7.6-6.4-8.1-11.4v-142.7"/></svg>