<?xml version="1.0" encoding="utf-8"?>
<!-- Generator: Adobe Illustrator 26.0.3, SVG Export Plug-In . SVG Version: 6.00 Build 0)  -->
<svg version="1.1" id="_x30_" xmlns="http://www.w3.org/2000/svg" xmlns:xlink="http://www.w3.org/1999/xlink" x="0px" y="0px"
	 viewBox="0 0 512 398" style="enable-background:new 0 0 512 398;" xml:space="preserve">
<style type="text/css">
	.st0{fill:none;stroke:#000000;stroke-width:0.996;stroke-miterlimit:10;}
	.st1{fill:#BCBBBB;}
	.st2{fill:#F48023;}
	.st3{fill:none;stroke:#000000;stroke-width:0.9964;stroke-miterlimit:10;}
	.st4{fill:none;stroke:#000000;stroke-width:0.9514;stroke-miterlimit:10;}
	.st5{fill:none;stroke:#000000;stroke-width:0.9661;stroke-miterlimit:10;}
</style>
<g id="SPLINE_00000139990047679164790680000015764252478218823302_">
	<path class="st0" d="M188.1,99.8c-6.4,4.5-12.4,9.6-17.4,15.4"/>
</g>
<g id="SPLINE_00000068652969468164563890000001815010419508825224_">
	<path class="st0" d="M170.4,115.3c-3.9,4.6-7.4,9.4-10,14.7"/>
</g>
<g id="SPLINE_00000153690358051947899170000012448087122999850628_">
	<path class="st0" d="M261.9,65.3c-4.3-3-10.2-3-14.4,0"/>
</g>
<g id="SPLINE_00000014626908369631735990000005068728941760407201_">
	<path class="st0" d="M294.7,38.2c-6.4,4.5-12.4,9.6-17.4,15.4"/>
</g>
<g id="SPLINE_00000011031352779393376950000011591483214818918323_">
	<path class="st0" d="M277.2,53.8c-3.9,4.6-7.4,9.4-10,14.7"/>
</g>
<g id="SPLINE_00000019637420967110757590000009634381594778191018_">
	<path class="st0" d="M149.5,271.1c0.9-7.1,1.8-14.5,2.7-22.3"/>
</g>
<g id="SPLINE_00000142175437072486745340000000189609147179886986_">
	<path class="st0" d="M152.2,248.7c0.8-7.1,1.4-14.2,2-21.4"/>
</g>
<g id="SPLINE_00000055688405105084884480000014124469367649230466_">
	<path class="st0" d="M154.1,227.3c0-0.1,0-0.1,0-0.2"/>
</g>
<g id="SPLINE_00000001638316776271914430000014744981604351575451_">
	<path class="st0" d="M154.1,227.1c0.6-8.5,1-16.9,1.3-25.2"/>
</g>
<g id="SPLINE_00000013884793043244085160000014853783482910748803_">
	<path class="st0" d="M140.1,201.9c0.3,8.3,0.7,16.7,1.3,25.2"/>
</g>
<g id="SPLINE_00000179623905716502070950000001024665311158549397_">
	<path class="st0" d="M141.5,227.3c0.5,7.4,1.2,14.5,2,21.4"/>
</g>
<g id="SPLINE_00000065785433594487776400000017707587752602481838_">
	<path class="st0" d="M143.3,248.8c0.8,7.8,1.8,15.1,2.7,22.3"/>
</g>
<g id="SPLINE_00000057146643908764838800000003406705637348948662_">
	<path class="st0" d="M155.5,201.9c-0.7-1.5-1.7-2.9-3.2-3.6"/>
</g>
<g id="SPLINE_00000099652226964535181810000000489622964253447812_">
	<path class="st0" d="M140.1,201.9c0.7-1.5,1.7-2.9,3.2-3.6"/>
</g>
<g id="SPLINE_00000081629917794119097360000006870770295206656670_">
	<path class="st0" d="M54.3,197.5c-3.2,5.2-5.7,10.7-7.7,16.3"/>
</g>
<g id="SPLINE_00000003086298792444611990000003340270156974321049_">
	<path class="st0" d="M83.3,169c-11.4,7.4-21.7,16.6-28.9,28.3"/>
</g>
<g id="SPLINE_00000163767187371757061790000017003186321040092826_">
	<path class="st0" d="M111.5,186c-9.5-5.6-18.8-11.2-28.2-16.8"/>
</g>
<g id="SPLINE_00000081626799399288275590000000983036849396962198_">
	<path class="st0" d="M241.3,197.3c-3-4.9-6.7-9.6-11.1-13.9l-0.1-0.1c-5.4-5.4-11.4-10.1-17.7-14.2"/>
</g>
<g id="SPLINE_00000038410448601784765130000015934213405444870808_">
	<path class="st0" d="M249,213.7c-2-5.7-4.6-11.2-7.7-16.3"/>
</g>
<g id="SPLINE_00000116226824071803686640000010176752575587989637_">
	<path class="st0" d="M83.3,169c0.7-1.5,1.8-2.9,3.3-3.5"/>
</g>
<g id="SPLINE_00000142861838706288586660000001828047032572761528_">
	<path class="st0" d="M212.5,169c-0.7-1.5-1.8-2.9-3.3-3.5"/>
</g>
<g id="SPLINE_00000128451076462949119160000014249327068381507747_">
	<path class="st0" d="M180.5,144.4c9.5,5.4,19,10.7,28.7,15.8c3.6,1.2,3.5,3.9,0,5.2c-19,11-37.9,21.9-56.9,32.8
		c-2.7,2.1-6.3,2.1-9.1,0c-9.3-5.4-18.6-10.8-28.1-16.1"/>
</g>
<g id="SPLINE_00000044178195380074170460000014781522121888443327_">
	<g>
		<path class="st1" d="M174.2,179.8c-7.4,4.1-14.7,8.1-22.2,12c-6.4-3.1-12.7-6.4-19.2-9.9c1.6-0.7,3.2-1.4,4.8-2.2
			c4.8,2.5,9.7,5,14.4,7.3c5.8-3,11.6-6,17.4-9.2l0.1-0.1c5.4-3.3,10.8-6.6,16.1-10.1c-4.8-2.3-9.6-4.7-14.4-7.2
			c1.6-1.1,3.2-2.2,4.8-3.3c6.4,3.4,12.8,6.7,19.2,9.8C188.3,171.3,181.3,175.6,174.2,179.8L174.2,179.8z"/>
	</g>
</g>
<g id="SPLINE_00000064355440194987885460000012126751871008303531_">
	<g>
		<path class="st2" d="M160,173.2c3.8-2.3,7.5-4.6,11.3-7.1c1.6,0.8,3.2,1.6,4.8,2.4c-3.8,2.4-7.5,4.8-11.3,7l-0.1,0.1
			c-4.2,2.3-8.4,4.5-12.6,6.7c-1.6-0.8-3.2-1.6-4.8-2.4C151.4,177.8,155.6,175.6,160,173.2L160,173.2z"/>
	</g>
</g>
<g id="SPLINE_00000001639763683652517590000014647219682109390482_">
	<g>
		<path class="st2" d="M151.4,168.6c5-1.9,9.9-4,14.8-6.3c1.2,1.1,2.5,2.1,3.7,3.1c-4.5,2.1-9.1,4-13.6,5.9l-0.1,0.1
			c-4.9,1.8-9.8,3.5-14.6,5.1c-1.2-1-2.5-2-3.7-3c4.5-1.5,9-3,13.4-4.7L151.4,168.6z"/>
	</g>
</g>
<path class="st2" d="M129.4,143.2c-0.3,1.5-0.7,3-1,4.4c11.2,1.7,22.3,2.9,33.6,3.6c0.3-1.5,0.7-3,1-4.5
	C151.8,146.1,140.6,145,129.4,143.2z"/>
<g id="SPLINE_00000008858001547112073710000010199961397690047143_">
	<path class="st0" d="M180.5,144.4c-9.4-5.6-18.7-11.3-28.1-16.9c-2.7-2.2-6.4-2.2-9.1,0c-18.6,11.6-37.6,22.5-56.9,32.8
		c-3.6,1.2-3.5,3.9,0,5.2c9.7,5.6,19.1,11.1,28.7,16.5"/>
</g>
<g id="SPLINE_00000026126432574151247940000000628679433295980416_">
	<g>
		<path class="st2" d="M141.6,162.8c7.2-1.5,14.3-3.1,21.4-5.1c0.8,1.3,1.7,2.6,2.5,3.9c-5.4,1.5-10.7,2.9-16,4.1l-2.5,0.5
			c-5,1-10,1.9-14.9,2.6c-0.9-1.3-1.7-2.7-2.6-4c4-0.6,8-1.2,12-2H141.6z"/>
	</g>
</g>
<g id="SPLINE_00000024695843206216571890000008443368784073724085_">
	<g>
		<path class="st2" d="M134.3,158.4c-1.8,0-3.7,0-5.5,0c-0.2-1.4-0.4-2.8-0.6-4.2c11.3-0.1,22.5-0.7,33.8-1.8
			c0.2,1.5,0.4,2.9,0.6,4.3c-9.4,0.9-18.7,1.4-28.1,1.7H134.3z"/>
	</g>
</g>
<g id="SPLINE_00000107564600226520310780000013638242393313142458_">
	<path class="st0" d="M256.2,209.6c0.9-7.1,1.8-14.5,2.7-22.3"/>
</g>
<g id="SPLINE_00000081610107771749747410000011683847200501928629_">
	<path class="st0" d="M258.9,187.1c0.8-7.1,1.4-14.2,2-21.4"/>
</g>
<g id="SPLINE_00000054249663253685202730000009295310454729268365_">
	<path class="st0" d="M260.9,165.6c0-0.1,0-0.1,0-0.2"/>
</g>
<g id="SPLINE_00000156568664393960450200000002608809136458329502_">
	<path class="st0" d="M260.9,165.4c0.6-8.5,1-16.9,1.3-25.2"/>
</g>
<g id="SPLINE_00000041269505881054942850000004778355994675684995_">
	<path class="st0" d="M246.8,140.2c0.3,8.3,0.7,16.7,1.3,25.2v0.2c0.5,7.4,1.2,14.5,2,21.4v0.1c0.8,7.8,1.8,15.1,2.7,22.3"/>
</g>
<g id="SPLINE_00000024003079867312784480000009253898075632830856_">
	<path class="st0" d="M218.2,124.3c9.6,5.4,19,10.7,28.7,15.9"/>
</g>
<g id="SPLINE_00000168799260924532179020000001779853903520452498_">
	<path class="st0" d="M246.8,140.2c4.5,1.9,11,1.9,15.4,0"/>
</g>
<g id="SPLINE_00000050648862161798679580000007168248763910699918_">
	<path class="st0" d="M259.1,136.6c-2.7,2.1-6.3,2.1-9.1,0"/>
</g>
<g id="SPLINE_00000013178362478234790600000005471750301989555612_">
	<path class="st0" d="M262.3,140.2c-0.7-1.5-1.7-2.9-3.2-3.6"/>
</g>
<g id="SPLINE_00000156557910949685009070000016536996326026686905_">
	<path class="st0" d="M246.8,140.2c0.7-1.5,1.7-2.9,3.2-3.6"/>
</g>
<g id="SPLINE_00000020373194931982831360000008418747718239561099_">
	<path class="st0" d="M275.4,115.6C275.4,115.6,275.3,115.6,275.4,115.6"/>
</g>
<g id="SPLINE_00000080205788335965705310000012196450387063691706_">
	<path class="st0" d="M275.3,115.7c-5.8,2.7-12.3,3.8-18.6,3.8"/>
</g>
<g id="SPLINE_00000129168251423429373530000003159107574347667360_">
	<path class="st0" d="M250,136.6c-9.3-5.4-18.6-10.8-28.1-16.1"/>
</g>
<g id="SPLINE_00000109746275951675373170000004318082625167458459_">
	<path class="st0" d="M256.7,119.5c-7.2,0.1-14.5-1.3-20.9-4.7"/>
</g>
<g id="SPLINE_00000037654185114566489140000003653246834880716987_">
	<path class="st0" d="M190,107.5c-6.4,4.2-12.4,8.9-17.7,14.2"/>
</g>
<g id="SPLINE_00000044144570981549981020000003086097653559027889_">
	<path class="st0" d="M218.2,124.3c-9.5-5.6-18.8-11.2-28.2-16.8"/>
</g>
<g id="SPLINE_00000023262297216460696540000014955792295575804289_">
	<path class="st0" d="M336.9,121.6c-5.4-5.4-11.4-10.1-17.7-14.2"/>
</g>
<g id="SPLINE_00000111873783531274596710000010207592936505227678_">
	<path class="st0" d="M337,121.7L337,121.7"/>
</g>
<g id="SPLINE_00000177483855849909071850000001514423513248359084_">
	<path class="st0" d="M348,135.8c-3-4.9-6.7-9.6-11.1-13.9"/>
</g>
<g id="SPLINE_00000127042151861389145150000015034048953197030587_">
	<path class="st0" d="M355.7,152.1c-2-5.7-4.6-11.2-7.7-16.3"/>
</g>
<g id="SPLINE_00000160894729384927429400000017937644970096434333_">
	<path class="st0" d="M319.1,107.4c-18.7,11.5-37.6,22.4-57,32.9"/>
</g>
<g id="SPLINE_00000057839851840694608660000009003433495854937264_">
	<path class="st0" d="M244.5,110.6c3.7,2,8,2.7,12.2,2.7c3.3,0,6.7-0.5,9.9-1.7"/>
</g>
<g id="SPLINE_00000154413178501959588360000010874986977371019965_">
	<path class="st0" d="M190,107.5c0.7-1.5,1.8-2.9,3.3-3.5"/>
</g>
<g id="SPLINE_00000001640449522503706710000008385147376103335567_">
	<path class="st0" d="M193.3,104c9.7,5.6,19.1,11.1,28.7,16.5"/>
</g>
<g id="SPLINE_00000147903483988568961580000012199031084076835483_">
	<path class="st0" d="M315.9,103.9c-19,11-37.9,21.9-56.9,32.8"/>
</g>
<g id="SPLINE_00000085937060426700200160000002248841361220661672_">
	<path class="st0" d="M319.1,107.4c-0.7-1.5-1.8-2.9-3.3-3.5"/>
</g>
<g id="SPLINE_00000090986403436679880440000011812707481017955244_">
	<path class="st0" d="M235.6,114.7c-4.5-2.6-8.8-6.9-8.8-12.4"/>
</g>
<g id="SPLINE_00000123406014981977157900000015211569114763509888_">
	<path class="st0" d="M235.8,114.8c-0.1,0-0.1-0.1-0.2-0.1"/>
</g>
<g id="SPLINE_00000180332980815187999720000000581613171385267612_">
	<path class="st0" d="M193.3,98.7c-3.6,1.2-3.5,3.9,0,5.2"/>
</g>
<g id="SPLINE_00000048460598902858515130000017168578338228331403_">
	<path class="st0" d="M226.8,102.3c-0.1-4.5,2.9-8.5,6.5-10.9"/>
</g>
<g id="SPLINE_00000059993740855731242740000001418899581825225638_">
	<path class="st0" d="M285.7,106.1c-1.5,3.7-4.7,6.3-8,8.3"/>
</g>
<g id="SPLINE_00000052803101507717778860000008952423785536986273_">
	<path class="st0" d="M273.6,105.4c0.8-1.8,0.7-3.7-0.3-5.4c4-1,7.9-2.1,11.8-3.2c1.5,2.8,1.8,6.3,0.5,9.3"/>
</g>
<g id="SPLINE_00000163066835069663371070000000864746260016793508_">
	<path class="st0" d="M269,110.3c2-1.2,3.8-2.8,4.7-4.9"/>
</g>
<g id="SPLINE_00000152942534530062282910000016343050680171202214_">
	<path class="st0" d="M266.7,111.4c0.9-0.4,1.7-0.8,2.4-1.3"/>
</g>
<g id="SPLINE_00000000926151107973388250000014287812422693781128_">
	<path class="st0" d="M315.9,98.7c-9.7-5.2-19.1-10.5-28.7-15.8"/>
</g>
<g id="SPLINE_00000053545414852931402430000013485085816102391440_">
	<path class="st0" d="M315.9,103.9c3.5-1.3,3.6-4,0-5.2"/>
</g>
<g id="SPLINE_00000094579578820888575180000007319553875777784496_">
	<path class="st0" d="M277.8,114.3c-0.7,0.5-1.5,0.9-2.3,1.3"/>
</g>
<g id="SPLINE_00000180338718024526805410000011898718373420251327_">
	<path class="st0" d="M266.5,111.5C266.5,111.5,266.6,111.5,266.5,111.5"/>
</g>
<g id="SPLINE_00000166656186554008870390000015456766453978395298_">
	<path class="st0" d="M242.2,97.5c-1.7,1.4-3,3.4-3,5.7"/>
</g>
<g id="SPLINE_00000049915715260209243100000001723826170562561188_">
	<path class="st0" d="M239.2,103.2c0,3.2,2.5,5.8,5.1,7.3"/>
</g>
<g id="SPLINE_00000060742420948177782280000017829526618523361675_">
	<path class="st0" d="M244.3,110.5c0.1,0,0.1,0.1,0.2,0.1"/>
</g>
<g id="SPLINE_00000008136301527645154650000001063416000854807179_">
	<path class="st0" d="M242.3,97.4C242.3,97.4,242.2,97.5,242.3,97.4"/>
</g>
<g id="SPLINE_00000113314989468572174130000018320194585211488640_">
	<path class="st0" d="M250.1,65.9c-18.5,11.6-37.6,22.5-56.9,32.8"/>
</g>
<g id="SPLINE_00000048491710513392393190000003930941424389928121_">
	<path class="st0" d="M250.1,65.9c2.7-2.2,6.4-2.2,9.1,0"/>
</g>
<g id="SPLINE_00000014599745783604632390000013048239295426282644_">
	<path class="st0" d="M259.2,65.9c9.3,5.7,18.6,11.4,28.1,16.9"/>
</g>
<g id="SPLINE_00000076593663400962187350000012378755619216899229_">
	<path class="st0" d="M244.3,95.9c-0.8,0.5-1.4,1-2.1,1.5"/>
</g>
<g id="SPLINE_00000178923340308303233940000012667803783224620198_">
	<path class="st0" d="M252.1,93.2c-2.8,0.4-5.5,1.4-7.8,2.8"/>
</g>
<g id="SPLINE_00000127766217024688418770000011436496547644787890_">
	<path class="st0" d="M249.2,85.3c5.1-0.8,10.4-0.8,15.4,0c-1.2,2.7-2.5,5.3-3.9,7.8c-2.9-0.5-5.9-0.4-8.8,0"/>
</g>
<g id="SPLINE_00000057115060184968557080000003647992482738880952_">
	<path class="st0" d="M235.6,89.9c4.1-2.5,8.9-4,13.6-4.7"/>
</g>
<g id="SPLINE_00000129192120905289511900000000840298298547074996_">
	<path class="st0" d="M233.4,91.3c0.7-0.5,1.4-1,2.1-1.4"/>
</g>
<g id="SPLINE_00000117675624620707190620000006471860861897068421_">
	<path class="st0" d="M363,147.9c0.9-7.1,1.8-14.5,2.7-22.3"/>
</g>
<g id="SPLINE_00000010285953928428480840000007954591185313552014_">
	<path class="st0" d="M365.7,125.5c1.7-15.3,2.8-31.5,3.3-46.9"/>
</g>
<g id="SPLINE_00000052080718297733154670000004922739722797841550_">
	<path class="st0" d="M353.6,78.7c0.5,15.2,1.6,31.8,3.3,46.9"/>
</g>
<g id="SPLINE_00000100381348834913033910000005683524267917032112_">
	<path class="st0" d="M356.9,125.6c0.8,7.8,1.8,15.1,2.7,22.3"/>
</g>
<g id="SPLINE_00000044147334717641798180000004386918361902085026_">
	<path class="st0" d="M324.9,62.7c9.6,5.4,19,10.7,28.7,15.9"/>
</g>
<g id="SPLINE_00000138534468548652813850000010131360265073473153_">
	<path class="st0" d="M233.3,91.4C233.3,91.4,233.4,91.4,233.3,91.4"/>
</g>
<g id="SPLINE_00000168086556944518898360000001105158325359277442_">
	<path class="st0" d="M353.6,78.7c4.5,1.9,11,1.9,15.4,0"/>
</g>
<g id="SPLINE_00000179638491411180430920000005061153160343046565_">
	<path class="st0" d="M363,147.9c-1,0.5-2.4,0.5-3.4,0"/>
</g>
<g id="SPLINE_00000058559455890987045400000014317042940010716351_">
	<path class="st0" d="M365.8,75.1c-2.7,2.1-6.3,2.1-9.1,0"/>
</g>
<g id="SPLINE_00000023981506126377088450000016392831214765051558_">
	<path class="st0" d="M368.9,78.7c-0.7-1.5-1.7-2.9-3.2-3.6"/>
</g>
<g id="SPLINE_00000030463437514849439250000009924313291639626113_">
	<path class="st0" d="M353.6,78.7c0.7-1.5,1.7-2.9,3.2-3.6"/>
</g>
<g id="SPLINE_00000122701669049353694480000006912179487232541072_">
	<path class="st0" d="M356.8,75.1c-9.3-5.4-18.6-10.8-28.1-16.1"/>
</g>
<g id="SPLINE_00000077288579660261719890000017607025988625780144_">
	<path class="st0" d="M382.1,54.1c-1.7,1-3.5,1.9-5.2,2.8c-9.2-1.9-18.3-4.3-27.6-7"/>
</g>
<g id="SPLINE_00000140694518890387904100000002718206367045622190_">
	<path class="st0" d="M359.6,147.9c1,0.6,2.4,0.6,3.4,0"/>
</g>
<g id="SPLINE_00000155830973472488330660000004978832512807994254_">
	<path class="st0" d="M296.7,45.8c-6.4,4.2-12.4,8.9-17.7,14.2"/>
</g>
<g id="SPLINE_00000046322654131017247800000015652236431982280601_">
	<path class="st0" d="M324.9,62.7c-9.5-5.6-18.8-11.2-28.2-16.8"/>
</g>
<g id="SPLINE_00000134216821255725049870000004343063537973694114_">
	<path class="st0" d="M462.5,90.5c-6.2-18.7-19.9-34.2-36.6-44.7"/>
</g>
<g id="SPLINE_00000013170515602730913510000001055431018555023495_">
	<path class="st0" d="M425.9,45.8c-18.7,11.5-37.6,22.4-57,32.9"/>
</g>
<g id="SPLINE_00000075140854957012496930000003485542070413672378_">
	<path class="st0" d="M296.7,45.8c0.7-1.5,1.8-2.9,3.3-3.5"/>
</g>
<g id="SPLINE_00000011737297781933095590000018094365120269430172_">
	<path class="st0" d="M300,42.3c9.7,5.6,19.1,11.1,28.7,16.5"/>
</g>
<g id="SPLINE_00000038404715771140313470000004445818701423022259_">
	<path class="st0" d="M425.9,45.8c-0.7-1.5-1.8-2.9-3.3-3.5"/>
</g>
<g id="SPLINE_00000023976033096228632840000015257403384229083524_">
	<path class="st0" d="M300,37.1c-3.6,1.2-3.5,3.9,0,5.2"/>
</g>
<g id="SPLINE_00000075844566167110831060000011995461845149131192_">
	<path class="st0" d="M349.3,49.9c-9.3-3.1-18.4-6.5-27.6-10.1c3.2-1.6,6.3-3.2,9.5-4.9c9.2,3.7,18.2,7.1,27.5,10"/>
</g>
<g id="SPLINE_00000022554981326404417830000005096857386621546405_">
	<path class="st0" d="M394,21.2c9.5,5.4,19,10.7,28.7,15.8c3.6,1.2,3.5,3.9,0,5.2c-19,11-37.9,21.9-56.9,32.8"/>
</g>
<g id="SPLINE_00000097475931425017187620000008103162729407615364_">
	<path class="st0" d="M373.3,36.1c4.7,5.4,9.3,10.4,13.8,14.8c-1.7,1-3.4,2.1-5,3.1"/>
</g>
<g id="SPLINE_00000170959612926335373310000001214307299702526625_">
	<path class="st0" d="M358.6,45c3.7,1.1,7.4,2.2,11.1,3.1l0.1-0.1c-1.9-2-3.8-4.1-5.7-6.2"/>
</g>
<g id="SPLINE_00000111882227543552656820000012123573642039679909_">
	<path class="st0" d="M394,21.2c-9.4-5.6-18.7-11.3-28.1-16.9c-2.7-2.2-6.4-2.2-9.1,0c-18.6,11.6-37.6,22.5-56.9,32.8"/>
</g>
<g id="SPLINE_00000154418453364706090340000008011440230175024036_">
	<path class="st0" d="M364.1,41.8c-4.8-5.4-9.5-11.4-14.1-17.6c3.2-2,6.3-4,9.5-6.1c4.6,6.1,9.3,12.3,13.9,17.9"/>
</g>
<g id="SPLINE_00000069370520535700493380000001876434423198591924_">
	<path class="st0" d="M83.3,169c-2.5-1.5-5-5.6-2-7.7"/>
</g>
<g id="SPLINE_00000009578697117590363530000010551106049498271397_">
	<path class="st0" d="M214.5,161.4c3,2.2,0.5,6.2-2,7.7c-18.7,11.5-37.6,22.4-57,32.9c-16.2,5.8-30-10-44-15.9"/>
</g>
<g id="SPLINE_00000044163662407618500700000007585346365964148627_">
	<path class="st0" d="M83.8,159.9c0.9-0.6,2,0,2.8,0.5"/>
</g>
<g id="SPLINE_00000163039877117359101160000012730479812261221255_">
	<path class="st0" d="M211.9,159.8c-0.9-0.6-2,0-2.8,0.5"/>
</g>
<g id="SPLINE_00000064328455192533789670000017875890396782555289_">
	<path class="st0" d="M140.7,127c0.8-0.6,1.9,0.1,2.7,0.6"/>
</g>
<g id="SPLINE_00000096028173300597047320000013487928766907069887_">
	<path class="st0" d="M155.1,127c-0.8-0.6-1.9,0.1-2.7,0.6"/>
</g>
<g id="SPLINE_00000116927524737011526170000013019005534195780535_">
	<path class="st0" d="M172.1,121.8c-3.2,3.3-6.1,6.5-8.4,10.3"/>
</g>
<g id="SPLINE_00000119835990651118904520000004795176471963081632_">
	<path class="st0" d="M190,107.5c-2.5-1.5-5-5.6-2-7.7"/>
</g>
<g id="SPLINE_00000059270338863583730390000008827879666334298556_">
	<path class="st0" d="M321.1,99.7c3,2.2,0.5,6.2-2,7.7"/>
</g>
<g id="SPLINE_00000031181074083729504250000010323288050023770253_">
	<path class="st0" d="M190.6,98.2c0.9-0.6,2,0,2.8,0.5"/>
</g>
<g id="SPLINE_00000079446957897236891670000015001907011096780676_">
	<path class="st0" d="M318.7,98.1c-0.9-0.6-2,0-2.8,0.5"/>
</g>
<g id="SPLINE_00000146473163624262859540000014554305632345507223_">
	<path class="st0" d="M247.4,65.3c0.8-0.6,1.9,0.1,2.7,0.6"/>
</g>
<g id="SPLINE_00000164491286505905234810000009910684159758149566_">
	<path class="st0" d="M261.9,65.3c-0.8-0.6-1.9,0.1-2.7,0.6"/>
</g>
<g id="SPLINE_00000031209562806254736980000006578500596134025090_">
	<path class="st0" d="M278.9,60.2c-3.2,3.3-6.1,6.5-8.4,10.3"/>
</g>
<g id="SPLINE_00000121265169401538784300000016688106881050708103_">
	<path class="st0" d="M296.7,45.8c-2.5-1.5-5-5.6-2-7.7"/>
</g>
<g id="SPLINE_00000106138975881420321380000007906385988996079025_">
	<path class="st0" d="M427.9,38.1c3,2.2,0.5,6.2-2,7.7"/>
</g>
<g id="SPLINE_00000074412465395120485490000016049384578505216411_">
	<path class="st0" d="M297.2,36.5c0.9-0.6,2,0,2.8,0.5"/>
</g>
<g id="SPLINE_00000040575734685056395430000008572650353031360394_">
	<path class="st0" d="M425.4,36.5c-0.9-0.6-2,0-2.8,0.5"/>
</g>
<g id="SPLINE_00000127023886600143581230000005836402845974227860_">
	<path class="st0" d="M354.2,3.8c0.8-0.6,1.9,0.1,2.7,0.6"/>
</g>
<g id="SPLINE_00000062166412177270736640000017461235637892885924_">
	<path class="st0" d="M368.6,3.8c-0.8-0.6-1.9,0.1-2.7,0.6"/>
</g>
<g id="LINE_00000018196909967690445600000011749419044026525605_">
	<line class="st0" x1="190.5" y1="98.2" x2="188.2" y2="99.7"/>
</g>
<g id="LINE_00000109001826698295337130000003641476971529634467_">
	<line class="st0" x1="321" y1="99.6" x2="318.7" y2="98.1"/>
</g>
<g id="LINE_00000052811589023481807430000016147756683682568104_">
	<line class="st0" x1="318.7" y1="98.1" x2="290.5" y2="81.9"/>
</g>
<g id="LINE_00000091700067890619125550000014494386565986881206_">
	<line class="st0" x1="170.5" y1="115.2" x2="170.4" y2="115.4"/>
</g>
<g id="LINE_00000087376199370985932290000012670711027839836607_">
	<path class="st0" d="M247.4,65.3c-14.1,8.3-42.7,24.7-56.9,32.9"/>
</g>
<g id="LINE_00000112616385082035047570000015031917672860595134_">
	<line class="st0" x1="290.5" y1="81.9" x2="261.9" y2="65.3"/>
</g>
<g id="LINE_00000145032577903217566720000008187916037418399644_">
	<line class="st0" x1="297.2" y1="36.5" x2="294.9" y2="38"/>
</g>
<g id="LINE_00000026126078887953167260000017720466295928633516_">
	<line class="st0" x1="277.3" y1="53.6" x2="277.1" y2="53.8"/>
</g>
<g id="LINE_00000072981440045728451850000009449363043563069627_">
	<path class="st0" d="M397.2,20.3L368.7,3.8l0,0c-4.3-3-10.2-3-14.4,0l0,0c-14.1,8.3-42.7,24.7-56.9,32.9"/>
</g>
<g id="LINE_00000121280149345734451430000010674837245176143264_">
	<line class="st0" x1="511" y1="197.7" x2="511" y2="126.3"/>
</g>
<g id="LINE_00000024696623159147930650000009955948501938462903_">
	<line class="st0" x1="152.2" y1="248.8" x2="152.2" y2="248.7"/>
</g>
<g id="LINE_00000039850052052194832480000014327699843570957497_">
	<line class="st0" x1="141.5" y1="227.1" x2="141.5" y2="227.3"/>
</g>
<g id="LINE_00000090269918278550187340000014299159164806110341_">
	<line class="st0" x1="143.3" y1="248.7" x2="143.3" y2="248.8"/>
</g>
<g id="LINE_00000104687412711106015700000002405542068150587272_">
	<path class="st0" d="M183.7,143.5L155.1,127l0,0c-4.3-3-10.2-3-14.4,0l0,0c-34,21.8-90,40.2-94,86.9l99.4,57.4c1,0.6,2.4,0.6,3.4,0
		c0.8-1.2,100.8-56.7,100.3-58.7l0,0c-3.1-13-8.9-25.4-17.7-35.6l-0.1-0.2C221.7,163.7,197.8,151.7,183.7,143.5"/>
</g>
<g id="LINE_00000183962359711138520290000009345146107817468033_">
	<line class="st0" x1="50.9" y1="197.4" x2="5.1" y2="223.8"/>
</g>
<g id="LINE_00000018917001580851477020000007583367620918976154_">
	<line class="st3" x1="156.8" y1="322.7" x2="156.8" y2="394.1"/>
</g>
<g id="LINE_00000144320253046295887620000003655347395852996763_">
	<line class="st3" x1="176.4" y1="394.1" x2="176.4" y2="322.7"/>
</g>
<g id="LINE_00000159437278658220205980000004644303160621760140_">
	<line class="st4" x1="5.1" y1="306.6" x2="5.1" y2="235.2"/>
</g>
<g id="LINE_00000169553785688329924690000008221526459097363333_">
	<line class="st5" x1="506.9" y1="132" x2="506.9" y2="203.4"/>
</g>
<g id="LINE_00000157987826415957191320000010284872828072995769_">
	<line class="st0" x1="147.8" y1="271.6" x2="147.8" y2="279.9"/>
</g>
<g id="LINE_00000181807509019217025890000015864352353149411486_">
	<polyline class="st0" points="219.1,231 219.1,238.6 147.8,279.9 76.5,238.7 76.5,231 	"/>
</g>
<g id="LINE_00000065761839015682403200000003082451620197984394_">
	<line class="st0" x1="54.4" y1="197.4" x2="54.3" y2="197.5"/>
</g>
<g id="LINE_00000128480340685282282670000006419310387620476302_">
	<line class="st0" x1="241.4" y1="197.4" x2="241.3" y2="197.3"/>
</g>
<g id="LINE_00000125563343484913810260000002087698180666939021_">
	<path class="st0" d="M81.3,161.4"/>
</g>
<g id="LINE_00000071553758910658093680000010687589350492643773_">
	<line class="st0" x1="258.9" y1="187.2" x2="258.9" y2="187.1"/>
</g>
<g id="LINE_00000076593595307865575560000010070634480491544204_">
	<path class="st0" d="M248.2,206.9c2.1,0.8,5.6,4.4,8,2.7c0.8-1.2,100.8-56.7,100.3-58.7l0,0c-4.6-20.9-17.6-39.2-35.4-51.1"/>
</g>
<g id="LINE_00000052823645087646728300000011483072588596171956_">
	<line class="st0" x1="254.5" y1="210.1" x2="254.5" y2="218.2"/>
</g>
<g id="LINE_00000129190217150096452370000013784111762966732726_">
	<polyline class="st0" points="325.9,169.3 325.9,177.1 254.5,218.2 247.8,214.3 	"/>
</g>
<g id="LINE_00000051358739425837216070000012231596542390078875_">
	<line class="st0" x1="172.3" y1="121.7" x2="172.1" y2="121.8"/>
</g>
<g id="LINE_00000001631482450820369870000015865451453115791038_">
	<line class="st0" x1="348" y1="135.8" x2="348" y2="135.8"/>
</g>
<g id="LINE_00000008866675936529582220000013824688510668760707_">
	<line class="st0" x1="188" y1="99.8" x2="188.3" y2="99.6"/>
</g>
<g id="LINE_00000034774227189518905080000011405818579757266326_">
	<line class="st0" x1="320.9" y1="99.6" x2="321.1" y2="99.7"/>
</g>
<g id="LINE_00000173839348079067646700000010331577648012126082_">
	<line class="st0" x1="365.7" y1="125.6" x2="365.7" y2="125.5"/>
</g>
<g id="LINE_00000058570853628564566420000005014280709639326901_">
	<line class="st0" x1="356.9" y1="125.5" x2="356.9" y2="125.6"/>
</g>
<g id="LINE_00000088848088990998822830000008457234496128127115_">
	<line class="st0" x1="355" y1="145.3" x2="359.6" y2="147.9"/>
</g>
<g id="LINE_00000111155323774814981710000002938148393496911259_">
	<line class="st0" x1="382.2" y1="54.1" x2="382.1" y2="54.1"/>
</g>
<g id="LINE_00000163761930455339309250000011517642241962672555_">
	<line class="st0" x1="361.3" y1="148.4" x2="361.3" y2="156.6"/>
</g>
<g id="LINE_00000146459922890150942950000005159522898195871897_">
	<polyline class="st0" points="432.6,107.8 432.6,115.4 361.3,156.7 354.6,152.8 	"/>
</g>
<g id="LINE_00000000197812171585151180000007437859074949673899_">
	<line class="st0" x1="279" y1="60.1" x2="278.9" y2="60.2"/>
</g>
<g id="LINE_00000022558884803400385520000003371962565869589660_">
	<line class="st0" x1="294.7" y1="38.1" x2="295" y2="38"/>
</g>
<g id="LINE_00000157267100268870770940000014664420724514993309_">
	<path class="st0" d="M397.1,20.3c30.6,16.5,58.2,32.1,66.1,69l0,0c0.5,2-99.5,57.5-100.3,58.7"/>
</g>
<g id="ARC_00000049180106572238605780000004896695781882775210_">
	<path class="st0" d="M5.1,223.8c-5.3,3.1-5.5,8.3,0,11.4l151.7,87.6c6.2,3.2,13.5,3.2,19.6,0L506.9,132c6-2.8,5-8.2,0-11.4
		l-48.3-27.9"/>
</g>
<g id="ARC_00000137121079621451804720000004839406769312070022_">
	<path class="st0" d="M511,197.7c-0.2,2.5-1.8,4.7-4.1,5.7L176.4,394.1c-6.2,3.2-13.5,3.2-19.6,0L5.1,306.6c-2.3-1-3.8-3.2-4.1-5.7
		v-71.4"/>
</g>
</svg>
