<?xml version="1.0" encoding="utf-8"?>
<!-- Generator: Adobe Illustrator 26.0.3, SVG Export Plug-In . SVG Version: 6.00 Build 0)  -->
<svg version="1.1" id="_x30_" xmlns="http://www.w3.org/2000/svg" xmlns:xlink="http://www.w3.org/1999/xlink" x="0px" y="0px"
	 viewBox="0 0 512 512" style="enable-background:new 0 0 512 512;" xml:space="preserve">
<style type="text/css">
	.st0{fill:none;stroke:#000000;stroke-miterlimit:10;}
	.st1{fill:#BCBBBB;}
	.st2{fill:#F48023;}
	.st3{fill:none;stroke:#000000;stroke-width:1.0004;stroke-miterlimit:10;}
	.st4{fill:none;stroke:#000000;stroke-width:0.9552;stroke-miterlimit:10;}
	.st5{fill:none;stroke:#000000;stroke-width:0.97;stroke-miterlimit:10;}
</style>
<g id="SPLINE_00000139990047679164790680000015764252478218823302_">
	<path class="st0" d="M187.8,156.4c-6.4,4.5-12.4,9.6-17.5,15.5"/>
</g>
<g id="SPLINE_00000068652969468164563890000001815010419508825224_">
	<path class="st0" d="M170.1,172c-3.9,4.6-7.4,9.4-10,14.8"/>
</g>
<g id="SPLINE_00000153690358051947899170000012448087122999850628_">
	<path class="st0" d="M261.9,121.8c-4.3-3-10.2-3-14.5,0"/>
</g>
<g id="SPLINE_00000014626908369631735990000005068728941760407201_">
	<path class="st0" d="M294.9,94.6c-6.4,4.5-12.4,9.6-17.5,15.5"/>
</g>
<g id="SPLINE_00000011031352779393376950000011591483214818918323_">
	<path class="st0" d="M277.3,110.2c-3.9,4.6-7.4,9.4-10,14.8"/>
</g>
<g id="SPLINE_00000019637420967110757590000009634381594778191018_">
	<path class="st0" d="M149.1,328.4c0.9-7.1,1.8-14.6,2.7-22.4"/>
</g>
<g id="SPLINE_00000142175437072486745340000000189609147179886986_">
	<path class="st0" d="M151.8,305.9c0.8-7.1,1.4-14.3,2-21.5"/>
</g>
<g id="SPLINE_00000055688405105084884480000014124469367649230466_">
	<path class="st0" d="M153.7,284.4c0-0.1,0-0.1,0-0.2"/>
</g>
<g id="SPLINE_00000001638316776271914430000014744981604351575451_">
	<path class="st0" d="M153.7,284.2c0.6-8.5,1-17,1.3-25.3"/>
</g>
<g id="SPLINE_00000013884793043244085160000014853783482910748803_">
	<path class="st0" d="M139.6,258.9c0.3,8.3,0.7,16.8,1.3,25.3"/>
</g>
<g id="SPLINE_00000179623905716502070950000001024665311158549397_">
	<path class="st0" d="M141,284.4c0.5,7.4,1.2,14.6,2,21.5"/>
</g>
<g id="SPLINE_00000065785433594487776400000017707587752602481838_">
	<path class="st0" d="M142.9,306c0.8,7.8,1.8,15.2,2.7,22.4"/>
</g>
<g id="SPLINE_00000057146643908764838800000003406705637348948662_">
	<path class="st0" d="M155.1,258.9c-0.7-1.5-1.7-2.9-3.2-3.6"/>
</g>
<g id="SPLINE_00000099652226964535181810000000489622964253447812_">
	<path class="st0" d="M139.6,258.9c0.7-1.5,1.7-2.9,3.2-3.6"/>
</g>
<g id="SPLINE_00000081629917794119097360000006870770295206656670_">
	<path class="st0" d="M53.5,254.5c-3.2,5.2-5.7,10.7-7.7,16.4"/>
</g>
<g id="SPLINE_00000003086298792444611990000003340270156974321049_">
	<path class="st0" d="M82.6,225.9c-11.4,7.4-21.8,16.7-29,28.4"/>
</g>
<g id="SPLINE_00000163767187371757061790000017003186321040092826_">
	<path class="st0" d="M110.9,242.9c-9.5-5.6-18.9-11.2-28.3-16.9"/>
</g>
<g id="SPLINE_00000081626799399288275590000000983036849396962198_">
	<path class="st0" d="M241.2,254.3c-3-4.9-6.7-9.6-11.1-14l-0.1-0.1c-5.4-5.4-11.4-10.1-17.8-14.3"/>
</g>
<g id="SPLINE_00000038410448601784765130000015934213405444870808_">
	<path class="st0" d="M249,270.8c-2-5.7-4.6-11.2-7.7-16.4"/>
</g>
<g id="SPLINE_00000116226824071803686640000010176752575587989637_">
	<path class="st0" d="M82.6,225.9c0.7-1.5,1.8-2.9,3.3-3.5"/>
</g>
<g id="SPLINE_00000142861838706288586660000001828047032572761528_">
	<path class="st0" d="M212.3,225.9c-0.7-1.5-1.8-2.9-3.3-3.5"/>
</g>
<g id="SPLINE_00000128451076462949119160000014249327068381507747_">
	<path class="st0" d="M180.2,201.2c9.5,5.4,19.1,10.7,28.8,15.9c3.6,1.2,3.5,3.9,0,5.2c-19.1,11-38.1,22-57.1,32.9
		c-2.7,2.1-6.3,2.1-9.1,0c-9.3-5.4-18.7-10.8-28.2-16.2"/>
</g>
<g id="SPLINE_00000044178195380074170460000014781522121888443327_">
	<g>
		<path class="st1" d="M173.9,236.7c-7.4,4.1-14.8,8.1-22.3,12c-6.4-3.1-12.8-6.4-19.3-9.9c1.6-0.7,3.2-1.4,4.8-2.2
			c4.8,2.5,9.7,5,14.5,7.3c5.8-3,11.6-6,17.5-9.2l0.1-0.1c5.4-3.3,10.8-6.6,16.2-10.1c-4.8-2.3-9.6-4.7-14.5-7.2
			c1.6-1.1,3.2-2.2,4.8-3.3c6.4,3.4,12.9,6.7,19.3,9.8c-7,4.4-14,8.7-21,12.9L173.9,236.7z"/>
	</g>
</g>
<g id="SPLINE_00000064355440194987885460000012126751871008303531_">
	<g>
		<path class="st2" d="M159.6,230.1c3.8-2.3,7.5-4.6,11.3-7.1c1.6,0.8,3.2,1.6,4.8,2.4c-3.8,2.4-7.5,4.8-11.3,7l-0.1,0.1
			c-4.2,2.3-8.4,4.5-12.7,6.7c-1.6-0.8-3.2-1.6-4.8-2.4c4.2-2.1,8.4-4.3,12.7-6.7L159.6,230.1z"/>
	</g>
</g>
<g id="SPLINE_00000001639763683652517590000014647219682109390482_">
	<g>
		<path class="st2" d="M151,225.5c5-1.9,9.9-4,14.9-6.3c1.2,1.1,2.5,2.1,3.7,3.1c-4.5,2.1-9.1,4-13.7,5.9l-0.1,0.1
			c-4.9,1.8-9.8,3.5-14.7,5.1c-1.2-1-2.5-2-3.7-3c4.5-1.5,9-3,13.5-4.7L151,225.5z"/>
	</g>
</g>
<path class="st2" d="M128.9,200c-0.3,1.5-0.7,3-1,4.4c11.2,1.7,22.4,2.9,33.7,3.6c0.3-1.5,0.7-3,1-4.5
	C151.4,202.9,140.1,201.8,128.9,200z"/>
<g id="SPLINE_00000008858001547112073710000010199961397690047143_">
	<path class="st0" d="M180.2,201.2c-9.4-5.6-18.8-11.3-28.2-17c-2.7-2.2-6.4-2.2-9.1,0c-18.7,11.6-37.7,22.6-57.1,32.9
		c-3.6,1.2-3.5,3.9,0,5.2c9.7,5.6,19.2,11.1,28.8,16.6"/>
</g>
<g id="SPLINE_00000026126432574151247940000000628679433295980416_">
	<g>
		<path class="st2" d="M141.1,219.7c7.2-1.5,14.4-3.1,21.5-5.1c0.8,1.3,1.7,2.6,2.5,3.9c-5.4,1.5-10.7,2.9-16.1,4.1l-2.5,0.5
			c-5,1-10,1.9-15,2.6c-0.9-1.3-1.7-2.7-2.6-4c4-0.6,8-1.2,12-2L141.1,219.7z"/>
	</g>
</g>
<g id="SPLINE_00000024695843206216571890000008443368784073724085_">
	<g>
		<path class="st2" d="M133.8,215.2c-1.8,0-3.7,0-5.5,0c-0.2-1.4-0.4-2.8-0.6-4.2c11.3-0.1,22.6-0.7,33.9-1.8
			c0.2,1.5,0.4,2.9,0.6,4.3c-9.4,0.9-18.8,1.4-28.2,1.7L133.8,215.2z"/>
	</g>
</g>
<g id="SPLINE_00000107564600226520310780000013638242393313142458_">
	<path class="st0" d="M256.2,266.6c0.9-7.1,1.8-14.6,2.7-22.4"/>
</g>
<g id="SPLINE_00000081610107771749747410000011683847200501928629_">
	<path class="st0" d="M258.9,244.1c0.8-7.1,1.4-14.3,2-21.5"/>
</g>
<g id="SPLINE_00000054249663253685202730000009295310454729268365_">
	<path class="st0" d="M260.9,222.5c0-0.1,0-0.1,0-0.2"/>
</g>
<g id="SPLINE_00000156568664393960450200000002608809136458329502_">
	<path class="st0" d="M260.9,222.3c0.6-8.5,1-17,1.3-25.3"/>
</g>
<g id="SPLINE_00000041269505881054942850000004778355994675684995_">
	<path class="st0" d="M246.8,197c0.3,8.3,0.7,16.8,1.3,25.3l0,0.2c0.5,7.4,1.2,14.6,2,21.5l0,0.1c0.8,7.8,1.8,15.2,2.7,22.4"/>
</g>
<g id="SPLINE_00000024003079867312784480000009253898075632830856_">
	<path class="st0" d="M218,181c9.6,5.4,19.1,10.7,28.8,16"/>
</g>
<g id="SPLINE_00000168799260924532179020000001779853903520452498_">
	<path class="st0" d="M246.8,197c4.5,1.9,11,1.9,15.5,0"/>
</g>
<g id="SPLINE_00000050648862161798679580000007168248763910699918_">
	<path class="st0" d="M259.1,193.4c-2.7,2.1-6.3,2.1-9.1,0"/>
</g>
<g id="SPLINE_00000013178362478234790600000005471750301989555612_">
	<path class="st0" d="M262.3,197c-0.7-1.5-1.7-2.9-3.2-3.6"/>
</g>
<g id="SPLINE_00000156557910949685009070000016536996326026686905_">
	<path class="st0" d="M246.8,197c0.7-1.5,1.7-2.9,3.2-3.6"/>
</g>
<g id="SPLINE_00000020373194931982831360000008418747718239561099_">
	<path class="st0" d="M275.5,172.3c0,0-0.1,0-0.1,0.1"/>
</g>
<g id="SPLINE_00000080205788335965705310000012196450387063691706_">
	<path class="st0" d="M275.4,172.4c-5.8,2.7-12.3,3.8-18.7,3.8"/>
</g>
<g id="SPLINE_00000129168251423429373530000003159107574347667360_">
	<path class="st0" d="M250,193.4c-9.3-5.4-18.7-10.8-28.2-16.2"/>
</g>
<g id="SPLINE_00000109746275951675373170000004318082625167458459_">
	<path class="st0" d="M256.7,176.2c-7.2,0.1-14.6-1.3-21-4.7"/>
</g>
<g id="SPLINE_00000037654185114566489140000003653246834880716987_">
	<path class="st0" d="M189.7,164.1c-6.4,4.2-12.4,8.9-17.8,14.3"/>
</g>
<g id="SPLINE_00000044144570981549981020000003086097653559027889_">
	<path class="st0" d="M218,181c-9.5-5.6-18.9-11.2-28.3-16.9"/>
</g>
<g id="SPLINE_00000023262297216460696540000014955792295575804289_">
	<path class="st0" d="M337.2,178.3c-5.4-5.4-11.4-10.1-17.8-14.3"/>
</g>
<g id="SPLINE_00000111873783531274596710000010207592936505227678_">
	<path class="st0" d="M337.3,178.4c0,0-0.1-0.1-0.1-0.1"/>
</g>
<g id="SPLINE_00000177483855849909071850000001514423513248359084_">
	<path class="st0" d="M348.4,192.5c-3-4.9-6.7-9.6-11.1-14"/>
</g>
<g id="SPLINE_00000127042151861389145150000015034048953197030587_">
	<path class="st0" d="M356.1,208.9c-2-5.7-4.6-11.2-7.7-16.4"/>
</g>
<g id="SPLINE_00000160894729384927429400000017937644970096434333_">
	<path class="st0" d="M319.4,164c-18.8,11.5-37.8,22.5-57.2,33"/>
</g>
<g id="SPLINE_00000057839851840694608660000009003433495854937264_">
	<path class="st0" d="M244.5,167.2c3.7,2,8,2.7,12.2,2.7c3.3,0,6.7-0.5,9.9-1.7"/>
</g>
<g id="SPLINE_00000154413178501959588360000010874986977371019965_">
	<path class="st0" d="M189.7,164.1c0.7-1.5,1.8-2.9,3.3-3.5"/>
</g>
<g id="SPLINE_00000001640449522503706710000008385147376103335567_">
	<path class="st0" d="M193,160.6c9.7,5.6,19.2,11.1,28.8,16.6"/>
</g>
<g id="SPLINE_00000147903483988568961580000012199031084076835483_">
	<path class="st0" d="M316.1,160.5c-19.1,11-38.1,22-57.1,32.9"/>
</g>
<g id="SPLINE_00000085937060426700200160000002248841361220661672_">
	<path class="st0" d="M319.4,164c-0.7-1.5-1.8-2.9-3.3-3.5"/>
</g>
<g id="SPLINE_00000090986403436679880440000011812707481017955244_">
	<path class="st0" d="M235.5,171.4c-4.5-2.6-8.8-6.9-8.8-12.4"/>
</g>
<g id="SPLINE_00000123406014981977157900000015211569114763509888_">
	<path class="st0" d="M235.7,171.5c-0.1,0-0.1-0.1-0.2-0.1"/>
</g>
<g id="SPLINE_00000180332980815187999720000000581613171385267612_">
	<path class="st0" d="M193,155.3c-3.6,1.2-3.5,3.9,0,5.2"/>
</g>
<g id="SPLINE_00000048460598902858515130000017168578338228331403_">
	<path class="st0" d="M226.7,158.9c-0.1-4.5,2.9-8.5,6.5-10.9"/>
</g>
<g id="SPLINE_00000059993740855731242740000001418899581825225638_">
	<path class="st0" d="M285.8,162.7c-1.5,3.7-4.7,6.3-8,8.3"/>
</g>
<g id="SPLINE_00000052803101507717778860000008952423785536986273_">
	<path class="st0" d="M273.7,162c0.8-1.8,0.7-3.7-0.3-5.4c4-1,7.9-2.1,11.8-3.2c1.5,2.8,1.8,6.3,0.5,9.3"/>
</g>
<g id="SPLINE_00000163066835069663371070000000864746260016793508_">
	<path class="st0" d="M269.1,166.9c2-1.2,3.8-2.8,4.7-4.9"/>
</g>
<g id="SPLINE_00000152942534530062282910000016343050680171202214_">
	<path class="st0" d="M266.7,168.1c0.9-0.4,1.7-0.8,2.4-1.3"/>
</g>
<g id="SPLINE_00000000926151107973388250000014287812422693781128_">
	<path class="st0" d="M316.1,155.3c-9.7-5.2-19.2-10.5-28.8-15.9"/>
</g>
<g id="SPLINE_00000053545414852931402430000013485085816102391440_">
	<path class="st0" d="M316.1,160.5c3.5-1.3,3.6-4,0-5.2"/>
</g>
<g id="SPLINE_00000094579578820888575180000007319553875777784496_">
	<path class="st0" d="M277.9,171c-0.7,0.5-1.5,0.9-2.3,1.3"/>
</g>
<g id="SPLINE_00000180338718024526805410000011898718373420251327_">
	<path class="st0" d="M266.5,168.2c0,0,0.1,0,0.1-0.1"/>
</g>
<g id="SPLINE_00000166656186554008870390000015456766453978395298_">
	<path class="st0" d="M242.1,154.1c-1.7,1.4-3,3.4-3,5.7"/>
</g>
<g id="SPLINE_00000049915715260209243100000001723826170562561188_">
	<path class="st0" d="M239.1,159.8c0,3.2,2.5,5.8,5.1,7.3"/>
</g>
<g id="SPLINE_00000060742420948177782280000017829526618523361675_">
	<path class="st0" d="M244.3,167.1c0.1,0,0.1,0.1,0.2,0.1"/>
</g>
<g id="SPLINE_00000008136301527645154650000001063416000854807179_">
	<path class="st0" d="M242.2,154C242.2,154,242.1,154.1,242.2,154"/>
</g>
<g id="SPLINE_00000113314989468572174130000018320194585211488640_">
	<path class="st0" d="M250.1,122.4C231.5,134,212.4,145,193,155.3"/>
</g>
<g id="SPLINE_00000048491710513392393190000003930941424389928121_">
	<path class="st0" d="M250.1,122.4c2.7-2.2,6.4-2.2,9.1,0"/>
</g>
<g id="SPLINE_00000014599745783604632390000013048239295426282644_">
	<path class="st0" d="M259.2,122.4c9.3,5.7,18.7,11.4,28.2,17"/>
</g>
<g id="SPLINE_00000076593663400962187350000012378755619216899229_">
	<path class="st0" d="M244.3,152.5c-0.8,0.5-1.4,1-2.1,1.5"/>
</g>
<g id="SPLINE_00000178923340308303233940000012667803783224620198_">
	<path class="st0" d="M252.1,149.8c-2.8,0.4-5.5,1.4-7.8,2.8"/>
</g>
<g id="SPLINE_00000127766217024688418770000011436496547644787890_">
	<path class="st0" d="M249.2,141.8c5.1-0.8,10.4-0.8,15.5,0c-1.2,2.7-2.5,5.3-3.9,7.8c-2.9-0.5-5.9-0.4-8.8,0"/>
</g>
<g id="SPLINE_00000057115060184968557080000003647992482738880952_">
	<path class="st0" d="M235.5,146.5c4.1-2.5,8.9-4,13.7-4.7"/>
</g>
<g id="SPLINE_00000129192120905289511900000000840298298547074996_">
	<path class="st0" d="M233.3,147.9c0.7-0.5,1.4-1,2.1-1.4"/>
</g>
<g id="SPLINE_00000117675624620707190620000006471860861897068421_">
	<path class="st0" d="M363.4,204.7c0.9-7.1,1.8-14.6,2.7-22.4"/>
</g>
<g id="SPLINE_00000010285953928428480840000007954591185313552014_">
	<path class="st0" d="M366.1,182.2c1.7-15.4,2.8-31.6,3.3-47.1"/>
</g>
<g id="SPLINE_00000052080718297733154670000004922739722797841550_">
	<path class="st0" d="M354,135.2c0.5,15.3,1.6,31.9,3.3,47.1"/>
</g>
<g id="SPLINE_00000100381348834913033910000005683524267917032112_">
	<path class="st0" d="M357.3,182.3c0.8,7.8,1.8,15.2,2.7,22.4"/>
</g>
<g id="SPLINE_00000044147334717641798180000004386918361902085026_">
	<path class="st0" d="M325.2,119.2c9.6,5.4,19.1,10.7,28.8,16"/>
</g>
<g id="SPLINE_00000138534468548652813850000010131360265073473153_">
	<path class="st0" d="M233.2,148c0,0,0.1,0,0.1-0.1"/>
</g>
<g id="SPLINE_00000168086556944518898360000001105158325359277442_">
	<path class="st0" d="M354,135.2c4.5,1.9,11,1.9,15.5,0"/>
</g>
<g id="SPLINE_00000179638491411180430920000005061153160343046565_">
	<path class="st0" d="M363.4,204.7c-1,0.5-2.4,0.5-3.4,0"/>
</g>
<g id="SPLINE_00000058559455890987045400000014317042940010716351_">
	<path class="st0" d="M366.2,131.6c-2.7,2.1-6.3,2.1-9.1,0"/>
</g>
<g id="SPLINE_00000023981506126377088450000016392831214765051558_">
	<path class="st0" d="M369.4,135.2c-0.7-1.5-1.7-2.9-3.2-3.6"/>
</g>
<g id="SPLINE_00000030463437514849439250000009924313291639626113_">
	<path class="st0" d="M354,135.2c0.7-1.5,1.7-2.9,3.2-3.6"/>
</g>
<g id="SPLINE_00000122701669049353694480000006912179487232541072_">
	<path class="st0" d="M357.2,131.6c-9.3-5.4-18.7-10.8-28.2-16.2"/>
</g>
<g id="SPLINE_00000077288579660261719890000017607025988625780144_">
	<path class="st0" d="M382.6,110.5c-1.7,1-3.5,1.9-5.2,2.8c-9.2-1.9-18.4-4.3-27.7-7"/>
</g>
<g id="SPLINE_00000140694518890387904100000002718206367045622190_">
	<path class="st0" d="M360,204.7c1,0.6,2.4,0.6,3.4,0"/>
</g>
<g id="SPLINE_00000155830973472488330660000004978832512807994254_">
	<path class="st0" d="M296.9,102.2c-6.4,4.2-12.4,8.9-17.8,14.3"/>
</g>
<g id="SPLINE_00000046322654131017247800000015652236431982280601_">
	<path class="st0" d="M325.2,119.2c-9.5-5.6-18.9-11.2-28.3-16.9"/>
</g>
<g id="SPLINE_00000134216821255725049870000004343063537973694114_">
	<path class="st0" d="M463.3,147.1c-6.2-18.8-20-34.3-36.7-44.9"/>
</g>
<g id="SPLINE_00000013170515602730913510000001055431018555023495_">
	<path class="st0" d="M426.6,102.2c-18.8,11.5-37.8,22.5-57.2,33"/>
</g>
<g id="SPLINE_00000075140854957012496930000003485542070413672378_">
	<path class="st0" d="M296.9,102.2c0.7-1.5,1.8-2.9,3.3-3.5"/>
</g>
<g id="SPLINE_00000011737297781933095590000018094365120269430172_">
	<path class="st0" d="M300.2,98.7c9.7,5.6,19.2,11.1,28.8,16.6"/>
</g>
<g id="SPLINE_00000038404715771140313470000004445818701423022259_">
	<path class="st0" d="M426.6,102.2c-0.7-1.5-1.8-2.9-3.3-3.5"/>
</g>
<g id="SPLINE_00000023976033096228632840000015257403384229083524_">
	<path class="st0" d="M300.2,93.5c-3.6,1.2-3.5,3.9,0,5.2"/>
</g>
<g id="SPLINE_00000075844566167110831060000011995461845149131192_">
	<path class="st0" d="M349.7,106.3c-9.3-3.1-18.5-6.5-27.7-10.1c3.2-1.6,6.3-3.2,9.5-4.9c9.2,3.7,18.3,7.1,27.6,10"/>
</g>
<g id="SPLINE_00000022554981326404417830000005096857386621546405_">
	<path class="st0" d="M394.5,77.5c9.5,5.4,19.1,10.7,28.8,15.9c3.6,1.2,3.5,3.9,0,5.2c-19.1,11-38.1,22-57.1,32.9"/>
</g>
<g id="SPLINE_00000097475931425017187620000008103162729407615364_">
	<path class="st0" d="M373.8,92.5c4.7,5.4,9.3,10.4,13.9,14.9c-1.7,1-3.4,2.1-5,3.1"/>
</g>
<g id="SPLINE_00000170959612926335373310000001214307299702526625_">
	<path class="st0" d="M359,101.4c3.7,1.1,7.4,2.2,11.1,3.1l0.1-0.1c-1.9-2-3.8-4.1-5.7-6.2"/>
</g>
<g id="SPLINE_00000111882227543552656820000012123573642039679909_">
	<path class="st0" d="M394.5,77.5c-9.4-5.6-18.8-11.3-28.2-17c-2.7-2.2-6.4-2.2-9.1,0c-18.7,11.6-37.7,22.6-57.1,32.9"/>
</g>
<g id="SPLINE_00000154418453364706090340000008011440230175024036_">
	<path class="st0" d="M364.5,98.2c-4.8-5.4-9.5-11.4-14.2-17.7c3.2-2,6.3-4,9.5-6.1c4.6,6.1,9.3,12.3,14,18"/>
</g>
<g id="SPLINE_00000069370520535700493380000001876434423198591924_">
	<path class="st0" d="M82.6,225.9c-2.5-1.5-5-5.6-2-7.7"/>
</g>
<g id="SPLINE_00000009578697117590363530000010551106049498271397_">
	<path class="st0" d="M214.3,218.2c3,2.2,0.5,6.2-2,7.7c-18.8,11.5-37.8,22.5-57.2,33c-16.3,5.8-30.1-10-44.2-16"/>
</g>
<g id="SPLINE_00000044163662407618500700000007585346365964148627_">
	<path class="st0" d="M83.1,216.7c0.9-0.6,2,0,2.8,0.5"/>
</g>
<g id="SPLINE_00000163039877117359101160000012730479812261221255_">
	<path class="st0" d="M211.7,216.6c-0.9-0.6-2,0-2.8,0.5"/>
</g>
<g id="SPLINE_00000064328455192533789670000017875890396782555289_">
	<path class="st0" d="M140.2,183.7c0.8-0.6,1.9,0.1,2.7,0.6"/>
</g>
<g id="SPLINE_00000096028173300597047320000013487928766907069887_">
	<path class="st0" d="M154.7,183.7c-0.8-0.6-1.9,0.1-2.7,0.6"/>
</g>
<g id="SPLINE_00000116927524737011526170000013019005534195780535_">
	<path class="st0" d="M171.8,178.5c-3.2,3.3-6.1,6.5-8.4,10.3"/>
</g>
<g id="SPLINE_00000119835990651118904520000004795176471963081632_">
	<path class="st0" d="M189.7,164.1c-2.5-1.5-5-5.6-2-7.7"/>
</g>
<g id="SPLINE_00000059270338863583730390000008827879666334298556_">
	<path class="st0" d="M321.4,156.3c3,2.2,0.5,6.2-2,7.7"/>
</g>
<g id="SPLINE_00000031181074083729504250000010323288050023770253_">
	<path class="st0" d="M190.3,154.8c0.9-0.6,2,0,2.8,0.5"/>
</g>
<g id="SPLINE_00000079446957897236891670000015001907011096780676_">
	<path class="st0" d="M318.9,154.7c-0.9-0.6-2,0-2.8,0.5"/>
</g>
<g id="SPLINE_00000146473163624262859540000014554305632345507223_">
	<path class="st0" d="M247.4,121.8c0.8-0.6,1.9,0.1,2.7,0.6"/>
</g>
<g id="SPLINE_00000164491286505905234810000009910684159758149566_">
	<path class="st0" d="M261.9,121.8c-0.8-0.6-1.9,0.1-2.7,0.6"/>
</g>
<g id="SPLINE_00000031209562806254736980000006578500596134025090_">
	<path class="st0" d="M279,116.6c-3.2,3.3-6.1,6.5-8.4,10.3"/>
</g>
<g id="SPLINE_00000121265169401538784300000016688106881050708103_">
	<path class="st0" d="M296.9,102.2c-2.5-1.5-5-5.6-2-7.7"/>
</g>
<g id="SPLINE_00000106138975881420321380000007906385988996079025_">
	<path class="st0" d="M428.6,94.5c3,2.2,0.5,6.2-2,7.7"/>
</g>
<g id="SPLINE_00000074412465395120485490000016049384578505216411_">
	<path class="st0" d="M297.4,92.9c0.9-0.6,2,0,2.8,0.5"/>
</g>
<g id="SPLINE_00000040575734685056395430000008572650353031360394_">
	<path class="st0" d="M426.1,92.9c-0.9-0.6-2,0-2.8,0.5"/>
</g>
<g id="SPLINE_00000127023886600143581230000005836402845974227860_">
	<path class="st0" d="M354.6,60c0.8-0.6,1.9,0.1,2.7,0.6"/>
</g>
<g id="SPLINE_00000062166412177270736640000017461235637892885924_">
	<path class="st0" d="M369,60c-0.8-0.6-1.9,0.1-2.7,0.6"/>
</g>
<g id="LINE_00000018196909967690445600000011749419044026525605_">
	<line class="st0" x1="190.2" y1="154.8" x2="187.9" y2="156.3"/>
</g>
<g id="LINE_00000109001826698295337130000003641476971529634467_">
	<line class="st0" x1="321.3" y1="156.2" x2="318.9" y2="154.7"/>
</g>
<g id="LINE_00000052811589023481807430000016147756683682568104_">
	<line class="st0" x1="318.9" y1="154.7" x2="290.6" y2="138.4"/>
</g>
<g id="LINE_00000091700067890619125550000014494386565986881206_">
	<line class="st0" x1="170.2" y1="171.9" x2="170.1" y2="172.1"/>
</g>
<g id="LINE_00000087376199370985932290000012670711027839836607_">
	<path class="st0" d="M247.4,121.8c-14.2,8.3-42.9,24.8-57.1,33"/>
</g>
<g id="LINE_00000112616385082035047570000015031917672860595134_">
	<line class="st0" x1="290.6" y1="138.4" x2="261.9" y2="121.8"/>
</g>
<g id="LINE_00000145032577903217566720000008187916037418399644_">
	<line class="st0" x1="297.4" y1="92.9" x2="295.1" y2="94.4"/>
</g>
<g id="LINE_00000026126078887953167260000017720466295928633516_">
	<line class="st0" x1="277.4" y1="110" x2="277.2" y2="110.2"/>
</g>
<g id="LINE_00000072981440045728451850000009449363043563069627_">
	<path class="st0" d="M397.8,76.6l-28.7-16.6l0,0c-4.3-3-10.2-3-14.5,0l0,0c-14.2,8.3-42.9,24.8-57.1,33"/>
</g>
<g id="LINE_00000121280149345734451430000010674837245176143264_">
	<line class="st0" x1="512" y1="254.7" x2="512" y2="183"/>
</g>
<g id="LINE_00000024696623159147930650000009955948501938462903_">
	<line class="st0" x1="151.8" y1="306" x2="151.8" y2="305.9"/>
</g>
<g id="LINE_00000039850052052194832480000014327699843570957497_">
	<line class="st0" x1="141" y1="284.2" x2="141" y2="284.4"/>
</g>
<g id="LINE_00000090269918278550187340000014299159164806110341_">
	<line class="st0" x1="142.9" y1="305.9" x2="142.9" y2="306"/>
</g>
<g id="LINE_00000104687412711106015700000002405542068150587272_">
	<path class="st0" d="M183.4,200.3l-28.7-16.6l0,0c-4.3-3-10.2-3-14.5,0l0,0c-34.1,21.9-90.4,40.4-94.4,87.2l99.8,57.6
		c1,0.6,2.4,0.6,3.4,0c0.8-1.2,101.2-56.9,100.7-58.9l0,0c-3.1-13.1-8.9-25.5-17.8-35.7l-0.1-0.2
		C221.6,220.6,197.6,208.5,183.4,200.3"/>
</g>
<g id="LINE_00000183962359711138520290000009345146107817468033_">
	<line class="st0" x1="50.1" y1="254.4" x2="4.1" y2="280.9"/>
</g>
<g id="LINE_00000018917001580851477020000007583367620918976154_">
	<line class="st3" x1="156.4" y1="380.2" x2="156.4" y2="451.9"/>
</g>
<g id="LINE_00000144320253046295887620000003655347395852996763_">
	<line class="st3" x1="176.1" y1="451.9" x2="176.1" y2="380.2"/>
</g>
<g id="LINE_00000159437278658220205980000004644303160621760140_">
	<line class="st4" x1="4.1" y1="364" x2="4.1" y2="292.3"/>
</g>
<g id="LINE_00000169553785688329924690000008221526459097363333_">
	<line class="st5" x1="507.9" y1="188.7" x2="507.9" y2="260.4"/>
</g>
<g id="LINE_00000157987826415957191320000010284872828072995769_">
	<line class="st0" x1="147.4" y1="328.9" x2="147.4" y2="337.2"/>
</g>
<g id="LINE_00000181807509019217025890000015864352353149411486_">
	<polyline class="st0" points="219,288.1 219,295.8 147.4,337.2 75.8,295.9 75.8,288.1 	"/>
</g>
<g id="LINE_00000065761839015682403200000003082451620197984394_">
	<line class="st0" x1="53.6" y1="254.4" x2="53.5" y2="254.5"/>
</g>
<g id="LINE_00000128480340685282282670000006419310387620476302_">
	<line class="st0" x1="241.3" y1="254.4" x2="241.2" y2="254.3"/>
</g>
<g id="LINE_00000125563343484913810260000002087698180666939021_">
	<path class="st0" d="M80.6,218.2"/>
</g>
<g id="LINE_00000071553758910658093680000010687589350492643773_">
	<line class="st0" x1="258.9" y1="244.2" x2="258.9" y2="244.1"/>
</g>
<g id="LINE_00000076593595307865575560000010070634480491544204_">
	<path class="st0" d="M248.2,263.9c2.1,0.8,5.6,4.4,8,2.7c0.8-1.2,101.2-56.9,100.7-58.9l0,0c-4.6-21-17.7-39.4-35.5-51.3"/>
</g>
<g id="LINE_00000052823645087646728300000011483072588596171956_">
	<line class="st0" x1="254.5" y1="267.1" x2="254.5" y2="275.3"/>
</g>
<g id="LINE_00000129190217150096452370000013784111762966732726_">
	<polyline class="st0" points="326.2,226.2 326.2,234 254.5,275.3 247.8,271.4 	"/>
</g>
<g id="LINE_00000051358739425837216070000012231596542390078875_">
	<line class="st0" x1="172" y1="178.4" x2="171.8" y2="178.5"/>
</g>
<g id="LINE_00000001631482450820369870000015865451453115791038_">
	<line class="st0" x1="348.4" y1="192.5" x2="348.4" y2="192.5"/>
</g>
<g id="LINE_00000008866675936529582220000013824688510668760707_">
	<line class="st0" x1="187.7" y1="156.4" x2="188" y2="156.2"/>
</g>
<g id="LINE_00000034774227189518905080000011405818579757266326_">
	<line class="st0" x1="321.2" y1="156.2" x2="321.4" y2="156.3"/>
</g>
<g id="LINE_00000173839348079067646700000010331577648012126082_">
	<line class="st0" x1="366.1" y1="182.3" x2="366.1" y2="182.2"/>
</g>
<g id="LINE_00000058570853628564566420000005014280709639326901_">
	<line class="st0" x1="357.3" y1="182.2" x2="357.3" y2="182.3"/>
</g>
<g id="LINE_00000088848088990998822830000008457234496128127115_">
	<line class="st0" x1="355.4" y1="202.1" x2="360" y2="204.7"/>
</g>
<g id="LINE_00000111155323774814981710000002938148393496911259_">
	<line class="st0" x1="382.7" y1="110.5" x2="382.6" y2="110.5"/>
</g>
<g id="LINE_00000163761930455339309250000011517642241962672555_">
	<line class="st0" x1="361.7" y1="205.2" x2="361.7" y2="213.4"/>
</g>
<g id="LINE_00000146459922890150942950000005159522898195871897_">
	<polyline class="st0" points="433.3,164.4 433.3,172.1 361.7,213.5 355,209.6 	"/>
</g>
<g id="LINE_00000000197812171585151180000007437859074949673899_">
	<line class="st0" x1="279.1" y1="116.5" x2="279" y2="116.6"/>
</g>
<g id="LINE_00000022558884803400385520000003371962565869589660_">
	<line class="st0" x1="294.9" y1="94.5" x2="295.2" y2="94.4"/>
</g>
<g id="LINE_00000157267100268870770940000014664420724514993309_">
	<path class="st0" d="M397.7,76.6c30.7,16.6,58.4,32.2,66.4,69.3l0,0c0.5,2-99.9,57.7-100.7,58.9"/>
</g>
<g id="ARC_00000049180106572238605780000004896695781882775210_">
	<path class="st0" d="M4.1,280.9c-5.3,3.1-5.5,8.3,0,11.4c0,0,152.3,87.9,152.3,87.9c6.2,3.2,13.6,3.2,19.7,0
		c0,0,331.8-191.5,331.8-191.5c6-2.8,5-8.2,0-11.4c0,0-48.5-28-48.5-28"/>
</g>
<g id="ARC_00000137121079621451804720000004839406769312070022_">
	<path class="st0" d="M512,254.7c-0.2,2.5-1.8,4.7-4.1,5.7c0,0-331.8,191.5-331.8,191.5c-6.2,3.2-13.6,3.2-19.7,0
		c0,0-152.3-87.9-152.3-87.9c-2.3-1-3.8-3.2-4.1-5.7c0,0,0-71.7,0-71.7"/>
</g>
</svg>
