<?xml version="1.0" encoding="utf-8"?>
<!-- Generator: Adobe Illustrator 27.5.0, SVG Export Plug-In . SVG Version: 6.00 Build 0)  -->
<svg version="1.1" xmlns="http://www.w3.org/2000/svg" xmlns:xlink="http://www.w3.org/1999/xlink" x="0px" y="0px"
	 viewBox="0 0 500 500" style="enable-background:new 0 0 500 500;" xml:space="preserve">
<g id="BACKGROUND">
	<rect style="fill:#FFFFFF;" width="500" height="500"/>
</g>
<g id="OBJECTS">
	<circle style="fill:#7ACDFF;" cx="250" cy="250" r="175"/>
	<g>
		<linearGradient id="SVGID_1_" gradientUnits="userSpaceOnUse" x1="69.8485" y1="426.8991" x2="173.0832" y2="329.6588">
			<stop  offset="0" style="stop-color:#FF8533"/>
			<stop  offset="0.9964" style="stop-color:#FFD052"/>
		</linearGradient>
		<path style="fill:url(#SVGID_1_);" d="M174.226,325.566c0,0-60.811-22.814-73.828,36.36l12.848-2.561
			c0,0-15.055,17.314-20.392,50.149c32.653-6.358,49.489-21.945,49.489-21.945l-2.16,12.922
			C198.924,385.637,174.226,325.566,174.226,325.566z"/>
		
			<linearGradient id="SVGID_00000160162573702835933690000002652692118933001150_" gradientUnits="userSpaceOnUse" x1="117.0295" y1="382.8422" x2="180.6624" y2="320.2356">
			<stop  offset="0.0036" style="stop-color:#FFD052"/>
			<stop  offset="1" style="stop-color:#FFE9AE"/>
		</linearGradient>
		<path style="fill:url(#SVGID_00000160162573702835933690000002652692118933001150_);" d="M174.226,325.566
			c0,0-37.932-14.231-46.051,22.68l8.014-1.598c0,0-9.391,10.8-12.72,31.281c20.368-3.966,30.869-13.689,30.869-13.689l-1.347,8.06
			C189.632,363.036,174.226,325.566,174.226,325.566z"/>
		
			<linearGradient id="SVGID_00000021120579933271667990000010954085504587891894_" gradientUnits="userSpaceOnUse" x1="235.8603" y1="351.3223" x2="176.2907" y2="253.9489">
			<stop  offset="0" style="stop-color:#767B7F"/>
			<stop  offset="1" style="stop-color:#A3A3A3"/>
		</linearGradient>
		<polygon style="fill:url(#SVGID_00000021120579933271667990000010954085504587891894_);" points="217.209,322.546 175.712,281.49 
			187.147,269.984 228.644,311.041 		"/>
		
			<linearGradient id="SVGID_00000006675803322179712660000002822720773626087082_" gradientUnits="userSpaceOnUse" x1="146.9981" y1="246.4599" x2="242.4566" y2="355.5555">
			<stop  offset="0.0036" style="stop-color:#F02E54"/>
			<stop  offset="1" style="stop-color:#8F1931"/>
		</linearGradient>
		<path style="fill:url(#SVGID_00000006675803322179712660000002822720773626087082_);" d="M207.205,215.487
			c0,0-38.541-2.847-54.354,13.056c-17.063,17.16-31.195,38.158-42.606,68.17c-6.089,16.015,9.99-0.538,20.656-10.288
			c18.673-17.069,27.878-16.723,45.656-12.65C176.558,273.775,186.143,254.159,207.205,215.487z"/>
		<path style="opacity:0.33;fill:#FFFFFF;" d="M207.205,215.487c0,0-38.541-2.847-54.354,13.056
			c-17.063,17.16-31.195,38.158-42.606,68.17c-1.142,3.003-1.504,4.861-1.269,5.833c0,0,16.405-38.018,34.378-56.622
			S173.309,220.365,207.205,215.487"/>
		
			<linearGradient id="SVGID_00000029739166162850371570000003709137725622775170_" gradientUnits="userSpaceOnUse" x1="248.0439" y1="381.8685" x2="217.3649" y2="227.271">
			<stop  offset="0.0036" style="stop-color:#F02E54"/>
			<stop  offset="1" style="stop-color:#8F1931"/>
		</linearGradient>
		<path style="fill:url(#SVGID_00000029739166162850371570000003709137725622775170_);" d="M283.322,290.797
			c0,0,3.178,38.429-12.627,54.34c-17.055,17.169-37.981,31.445-67.962,43.082c-15.999,6.21,0.455-9.972,10.137-20.696
			c16.949-18.774,16.525-27.955,12.294-45.658C225.163,321.864,244.741,312.136,283.322,290.797z"/>
		
			<linearGradient id="SVGID_00000167378373421248081000000007652402937094683050_" gradientUnits="userSpaceOnUse" x1="276.0368" y1="151.4578" x2="346.6577" y2="318.2509">
			<stop  offset="0.0036" style="stop-color:#EEF4FA"/>
			<stop  offset="1" style="stop-color:#CDDEED"/>
		</linearGradient>
		<path style="fill:url(#SVGID_00000167378373421248081000000007652402937094683050_);" d="M404.692,145.799
			c6.407-41.533-1.759-51.302-1.759-51.302s-9.86-8.065-51.431-1.324c-43.908,7.12-71.777,34.117-90.755,52.885
			c-24.554,24.282-65.048,80.156-84.189,127.717l24.428,23.918l24.177,24.171c47.505-19.498,103.162-60.37,127.291-85.072
			C371.104,217.7,397.925,189.667,404.692,145.799z"/>
		
			<linearGradient id="SVGID_00000183928140803438553240000012492891663482804114_" gradientUnits="userSpaceOnUse" x1="285.6804" y1="169.9507" x2="345.5925" y2="311.4518">
			<stop  offset="0.0036" style="stop-color:#EEF4FA"/>
			<stop  offset="1" style="stop-color:#CDDEED"/>
		</linearGradient>
		<path style="fill:url(#SVGID_00000183928140803438553240000012492891663482804114_);" d="M182.754,279.842l18.232,17.851
			l24.177,24.171c47.505-19.498,103.162-60.37,127.291-85.072c18.65-19.093,45.472-47.126,52.238-90.993
			c6.407-41.533-1.759-51.302-1.759-51.302"/>
		
			<line style="opacity:0.09;fill:none;stroke:#000000;stroke-width:1.8919;stroke-miterlimit:10;" x1="180.015" y1="277.16" x2="221.609" y2="318.311"/>
		
			<linearGradient id="SVGID_00000167398217355287565870000011993372679249938575_" gradientUnits="userSpaceOnUse" x1="173.0094" y1="238.2029" x2="236.7503" y2="316.8469">
			<stop  offset="0" style="stop-color:#C7C7C7"/>
			<stop  offset="1" style="stop-color:#A3A3A3"/>
		</linearGradient>
		<path style="fill:url(#SVGID_00000167398217355287565870000011993372679249938575_);" d="M176.558,273.775l24.428,23.918
			l24.177,24.171c9.601-3.941,19.536-8.764,29.475-14.142l-64.155-63.475C185.178,254.21,180.427,264.163,176.558,273.775z"/>
		
			<linearGradient id="SVGID_00000060749083211426504250000017387970973577751968_" gradientUnits="userSpaceOnUse" x1="219.3767" y1="276.7293" x2="232.4199" y2="316.9457">
			<stop  offset="0" style="stop-color:#1D262D"/>
			<stop  offset="1" style="stop-color:#1D262D;stop-opacity:0"/>
		</linearGradient>
		<polygon style="fill:url(#SVGID_00000060749083211426504250000017387970973577751968_);" points="241.708,259.342 
			225.163,321.864 220.449,318.762 217.209,322.546 201.095,306.603 		"/>
		
			<line style="fill:none;stroke:#000000;stroke-width:1.8919;stroke-miterlimit:10;" x1="315.42" y1="104.532" x2="393.612" y2="181.895"/>
		
			<linearGradient id="SVGID_00000166668406032975857270000010847872611123944594_" gradientUnits="userSpaceOnUse" x1="360.3875" y1="107.8113" x2="492.1876" y2="213.5191">
			<stop  offset="0.0036" style="stop-color:#F02E54"/>
			<stop  offset="1" style="stop-color:#8F1931"/>
		</linearGradient>
		<path style="fill:url(#SVGID_00000166668406032975857270000010847872611123944594_);" d="M402.933,94.497
			c0,0-9.86-8.065-51.431-1.324c-13.47,2.185-25.425,6.245-36.082,11.359l78.192,77.363c5.036-10.676,9.004-22.638,11.08-36.096
			C411.099,104.267,402.933,94.497,402.933,94.497z"/>
		<g>
			<defs>
				<path id="SVGID_00000075861465595264913220000009081019764156504737_" d="M404.692,145.799
					c6.407-41.533-1.759-51.302-1.759-51.302s-9.86-8.065-51.431-1.324c-43.908,7.12-71.777,34.117-90.755,52.885
					c-24.554,24.282-65.048,80.156-84.189,127.717l24.428,23.918l24.177,24.171c47.505-19.498,103.162-60.37,127.291-85.072
					C371.104,217.7,397.925,189.667,404.692,145.799z"/>
			</defs>
			<clipPath id="SVGID_00000024689753584575983850000011767286372960082332_">
				<use xlink:href="#SVGID_00000075861465595264913220000009081019764156504737_"  style="overflow:visible;"/>
			</clipPath>
			
				<linearGradient id="SVGID_00000111185572556104908110000008215584421858055297_" gradientUnits="userSpaceOnUse" x1="528.6813" y1="336.9118" x2="284.6816" y2="83.9123">
				<stop  offset="0" style="stop-color:#8F1931"/>
				<stop  offset="0.9964" style="stop-color:#F02E54"/>
			</linearGradient>
			
				<polygon style="clip-path:url(#SVGID_00000024689753584575983850000011767286372960082332_);fill:url(#SVGID_00000111185572556104908110000008215584421858055297_);" points="
				393.936,198.583 299.801,106.374 303.771,102.32 397.907,194.529 			"/>
			
				<linearGradient id="SVGID_00000069371840576517100920000011355208669504585911_" gradientUnits="userSpaceOnUse" x1="521.2647" y1="344.0656" x2="277.265" y2="91.0662">
				<stop  offset="0" style="stop-color:#8F1931"/>
				<stop  offset="0.9964" style="stop-color:#F02E54"/>
			</linearGradient>
			
				<polygon style="clip-path:url(#SVGID_00000024689753584575983850000011767286372960082332_);fill:url(#SVGID_00000069371840576517100920000011355208669504585911_);" points="
				388.159,206.076 294.023,113.867 296.672,111.164 390.808,203.373 			"/>
		</g>
		
			<line style="opacity:0.09;fill:none;stroke:#000000;stroke-width:1.8919;stroke-miterlimit:10;" x1="190.475" y1="244.244" x2="254.638" y2="307.723"/>
		
			<linearGradient id="SVGID_00000034079956274065940410000011284792949217302690_" gradientUnits="userSpaceOnUse" x1="171.3046" y1="278.1467" x2="246.0342" y2="385.0383">
			<stop  offset="0.0036" style="stop-color:#F02E54"/>
			<stop  offset="1" style="stop-color:#8F1931"/>
		</linearGradient>
		<path style="fill:url(#SVGID_00000034079956274065940410000011284792949217302690_);" d="M241.375,257.054
			c0,0-3.582-5.547-38.201,29.287c-34.62,34.833-64.144,68.201-61.393,70.923c2.751,2.722,35.944-27.016,70.563-61.849
			C246.964,260.581,241.375,257.054,241.375,257.054z"/>
		<path style="opacity:0.33;fill:#FFFFFF;" d="M241.375,257.054c0,0-3.582-5.547-38.201,29.287
			c-34.62,34.833-64.144,68.201-61.393,70.923c0,0,9.679-13.908,35.659-41.577C203.422,288.018,233.214,257.779,241.375,257.054z"/>
		<g>
			
				<linearGradient id="SVGID_00000090276942098749032370000010462756989182712226_" gradientUnits="userSpaceOnUse" x1="300.983" y1="223.3097" x2="327.9652" y2="279.8038">
				<stop  offset="0" style="stop-color:#1D262D"/>
				<stop  offset="0.6767" style="stop-color:#1D262D;stop-opacity:0.3233"/>
				<stop  offset="1" style="stop-color:#1D262D;stop-opacity:0"/>
			</linearGradient>
			<path style="fill:url(#SVGID_00000090276942098749032370000010462756989182712226_);" d="M323.305,236.337
				c16.755-16.895,16.642-44.172-0.253-60.927c-16.894-16.755-44.171-16.641-60.927,0.253
				c-16.755,16.895-16.641,44.172,0.253,60.927C279.273,253.344,306.551,253.231,323.305,236.337z"/>
			<path style="fill:#D4D4D4;" d="M322.808,234.875c16.662-16.801,16.549-43.926-0.251-60.587
				c-16.799-16.661-43.925-16.549-60.587,0.251c-16.661,16.8-16.548,43.926,0.251,60.587
				C279.021,251.787,306.147,251.674,322.808,234.875z"/>
			
				<linearGradient id="SVGID_00000075143102097043498900000013463713587220256150_" gradientUnits="userSpaceOnUse" x1="273.293" y1="159.3252" x2="326.2936" y2="283.3147">
				<stop  offset="0" style="stop-color:#C7C7C7"/>
				<stop  offset="1" style="stop-color:#A3A3A3"/>
			</linearGradient>
			<path style="fill:url(#SVGID_00000075143102097043498900000013463713587220256150_);" d="M322.962,235.029
				c16.457-16.594,16.346-43.387-0.248-59.843c-16.593-16.457-43.386-16.345-59.843,0.248
				c-16.457,16.594-16.345,43.386,0.248,59.843C279.712,251.734,306.505,251.623,322.962,235.029z"/>
			<path style="fill:#76C9F0;" d="M268.862,228.187c-12.947-12.84-13.034-33.821-0.194-46.768
				c12.84-12.947,33.821-13.034,46.768-0.194c12.947,12.84,13.034,33.821,0.194,46.768
				C302.79,240.94,281.809,241.027,268.862,228.187z"/>
			
				<linearGradient id="SVGID_00000111162341869300591630000017792864103194519211_" gradientUnits="userSpaceOnUse" x1="266.9807" y1="166.5192" x2="329.6179" y2="262.2418">
				<stop  offset="0" style="stop-color:#ADE5FF"/>
				<stop  offset="1" style="stop-color:#76C9F0"/>
			</linearGradient>
			<path style="fill:url(#SVGID_00000111162341869300591630000017792864103194519211_);" d="M270.049,227.878
				c-12.421-12.319-12.504-32.448-0.186-44.869c12.319-12.421,32.448-12.505,44.869-0.186c12.421,12.318,12.504,32.447,0.186,44.869
				C302.599,240.113,282.47,240.197,270.049,227.878z"/>
			<g>
				<defs>
					<path id="SVGID_00000070815458889279552910000009502687277121337244_" d="M270.049,227.878
						c-12.421-12.319-12.504-32.448-0.186-44.869c12.319-12.421,32.448-12.505,44.869-0.186
						c12.421,12.318,12.504,32.447,0.186,44.869C302.599,240.113,282.47,240.197,270.049,227.878z"/>
				</defs>
				<clipPath id="SVGID_00000086675174244310403340000001594065294807251858_">
					<use xlink:href="#SVGID_00000070815458889279552910000009502687277121337244_"  style="overflow:visible;"/>
				</clipPath>
				
					<linearGradient id="SVGID_00000115484273745770275650000012620707186878688659_" gradientUnits="userSpaceOnUse" x1="322.9919" y1="178.9749" x2="256.0325" y2="223.3128">
					<stop  offset="0" style="stop-color:#F9FBFC"/>
					<stop  offset="1" style="stop-color:#F9FBFC;stop-opacity:0"/>
				</linearGradient>
				
					<polygon style="clip-path:url(#SVGID_00000086675174244310403340000001594065294807251858_);fill:url(#SVGID_00000115484273745770275650000012620707186878688659_);" points="
					321.628,180.257 251.297,211.317 256.339,222.732 326.669,191.671 				"/>
				
					<linearGradient id="SVGID_00000037662632577782106460000003849670901812777132_" gradientUnits="userSpaceOnUse" x1="331.5724" y1="191.9331" x2="264.613" y2="236.271">
					<stop  offset="0" style="stop-color:#F9FBFC"/>
					<stop  offset="1" style="stop-color:#F9FBFC;stop-opacity:0"/>
				</linearGradient>
				
					<polygon style="clip-path:url(#SVGID_00000086675174244310403340000001594065294807251858_);fill:url(#SVGID_00000037662632577782106460000003849670901812777132_);" points="
					328.642,197.916 258.312,228.976 260.849,234.721 331.179,203.661 				"/>
			</g>
			<g>
				<g>
					<path style="fill:#A3A3A3;" d="M265.371,180.877c0.205-0.977-0.42-1.935-1.396-2.14c-0.977-0.205-1.935,0.42-2.14,1.396
						c-0.205,0.977,0.42,1.935,1.396,2.14C264.208,182.479,265.166,181.853,265.371,180.877z"/>
					<path style="fill:#A3A3A3;" d="M259.09,190.77c0.205-0.977-0.42-1.935-1.396-2.14c-0.977-0.205-1.935,0.42-2.14,1.396
						c-0.205,0.977,0.42,1.935,1.396,2.14C257.926,192.372,258.885,191.747,259.09,190.77z"/>
					<path style="fill:#A3A3A3;" d="M272.491,174.044c0.205-0.977-0.42-1.935-1.396-2.14c-0.977-0.205-1.935,0.42-2.14,1.396
						c-0.205,0.977,0.42,1.935,1.396,2.14C271.327,175.646,272.285,175.021,272.491,174.044z"/>
					<path style="fill:#A3A3A3;" d="M257.47,212.209c-0.639-0.767-1.778-0.871-2.545-0.232c-0.767,0.639-0.871,1.778-0.232,2.545
						c0.639,0.767,1.778,0.871,2.545,0.232C258.005,214.115,258.109,212.976,257.47,212.209z"/>
					<path style="fill:#A3A3A3;" d="M261.334,223.273c-0.639-0.767-1.778-0.871-2.545-0.232c-0.767,0.639-0.871,1.778-0.232,2.545
						c0.639,0.767,1.778,0.871,2.545,0.232C261.869,225.179,261.973,224.04,261.334,223.273z"/>
					<path style="fill:#A3A3A3;" d="M256.736,200.629c-0.639-0.767-1.778-0.871-2.545-0.232c-0.767,0.639-0.871,1.778-0.232,2.545
						s1.778,0.871,2.545,0.232C257.271,202.535,257.375,201.395,256.736,200.629z"/>
					<path style="fill:#A3A3A3;" d="M276.448,237.932c-0.997,0.032-1.78,0.867-1.748,1.864c0.032,0.997,0.867,1.78,1.864,1.748
						c0.997-0.032,1.78-0.867,1.748-1.864C278.279,238.683,277.445,237.9,276.448,237.932z"/>
					<path style="fill:#A3A3A3;" d="M287.548,241.689c-0.997,0.032-1.78,0.867-1.748,1.864c0.032,0.997,0.866,1.78,1.864,1.748
						c0.997-0.032,1.78-0.867,1.748-1.864C289.38,242.44,288.545,241.657,287.548,241.689z"/>
					<path style="fill:#A3A3A3;" d="M266.864,231.389c-0.997,0.032-1.78,0.867-1.748,1.864c0.032,0.997,0.867,1.78,1.864,1.748
						c0.997-0.032,1.78-0.867,1.748-1.864C268.696,232.14,267.862,231.357,266.864,231.389z"/>
					<path style="fill:#A3A3A3;" d="M308.63,238.563c-0.594,0.802-0.425,1.934,0.378,2.527c0.802,0.593,1.934,0.424,2.527-0.378
						c0.594-0.802,0.424-1.934-0.378-2.527C310.355,237.591,309.223,237.76,308.63,238.563z"/>
					<path style="fill:#A3A3A3;" d="M317.899,232.272c-0.594,0.802-0.424,1.934,0.378,2.527c0.802,0.594,1.934,0.424,2.527-0.378
						c0.594-0.802,0.424-1.934-0.378-2.527C319.624,231.301,318.493,231.47,317.899,232.272z"/>
					<path style="fill:#A3A3A3;" d="M297.684,241.639c-0.594,0.802-0.424,1.934,0.378,2.527c0.802,0.594,1.934,0.424,2.527-0.378
						c0.594-0.802,0.424-1.934-0.378-2.527C299.408,240.667,298.277,240.837,297.684,241.639z"/>
					<path style="fill:#A3A3A3;" d="M327.515,214.195c0.239,0.969,1.219,1.56,2.187,1.321c0.969-0.239,1.56-1.219,1.321-2.188
						c-0.239-0.969-1.219-1.56-2.187-1.321C327.867,212.247,327.276,213.226,327.515,214.195z"/>
					<path style="fill:#A3A3A3;" d="M328.731,203.462c0.239,0.969,1.219,1.56,2.187,1.321c0.969-0.239,1.56-1.219,1.321-2.187
						c-0.239-0.969-1.219-1.56-2.187-1.321C329.083,201.514,328.492,202.493,328.731,203.462z"/>
					<path style="fill:#A3A3A3;" d="M323.837,224.927c0.239,0.969,1.219,1.56,2.187,1.321c0.969-0.239,1.56-1.219,1.321-2.188
						c-0.239-0.969-1.219-1.56-2.187-1.321C324.189,222.979,323.598,223.959,323.837,224.927z"/>
					<path style="fill:#A3A3A3;" d="M322.507,183.672c0.911,0.407,1.98-0.002,2.387-0.913c0.407-0.911-0.002-1.98-0.913-2.387
						c-0.911-0.407-1.98,0.002-2.387,0.913C321.187,182.197,321.596,183.265,322.507,183.672z"/>
					<path style="fill:#A3A3A3;" d="M314.303,175.515c0.911,0.407,1.98-0.002,2.387-0.913c0.407-0.911-0.002-1.98-0.913-2.387
						c-0.911-0.407-1.98,0.001-2.387,0.913C312.983,174.04,313.392,175.108,314.303,175.515z"/>
					<path style="fill:#A3A3A3;" d="M327.304,193.745c0.911,0.407,1.98-0.001,2.387-0.913c0.407-0.911-0.002-1.98-0.913-2.387
						c-0.911-0.407-1.98,0.002-2.387,0.913C325.984,192.269,326.393,193.338,327.304,193.745z"/>
					<path style="fill:#A3A3A3;" d="M293.128,168.807c0.884-0.462,1.227-1.554,0.765-2.438c-0.462-0.884-1.554-1.227-2.438-0.765
						c-0.884,0.462-1.227,1.554-0.765,2.438C291.152,168.927,292.243,169.269,293.128,168.807z"/>
					<path style="fill:#A3A3A3;" d="M281.921,170.768c0.884-0.462,1.227-1.554,0.765-2.438c-0.462-0.884-1.554-1.227-2.438-0.765
						c-0.884,0.462-1.227,1.554-0.765,2.438C279.945,170.888,281.036,171.231,281.921,170.768z"/>
					<path style="fill:#A3A3A3;" d="M304.822,170.46c0.884-0.462,1.227-1.554,0.765-2.438c-0.462-0.885-1.554-1.227-2.438-0.765
						c-0.884,0.462-1.227,1.554-0.765,2.438C302.846,170.58,303.938,170.923,304.822,170.46z"/>
				</g>
				<g>
					<path style="fill:#D4D4D4;" d="M264.991,180.497c0.205-0.977-0.42-1.935-1.396-2.14c-0.977-0.205-1.935,0.42-2.14,1.396
						c-0.205,0.977,0.42,1.935,1.396,2.14C263.828,182.098,264.786,181.473,264.991,180.497z"/>
					<path style="fill:#D4D4D4;" d="M258.71,190.39c0.205-0.977-0.42-1.935-1.396-2.14c-0.977-0.205-1.935,0.42-2.14,1.396
						c-0.205,0.977,0.42,1.935,1.396,2.14C257.546,191.992,258.505,191.367,258.71,190.39z"/>
					<path style="fill:#D4D4D4;" d="M272.111,173.664c0.205-0.976-0.42-1.935-1.396-2.14c-0.977-0.205-1.935,0.42-2.14,1.396
						c-0.205,0.977,0.42,1.935,1.396,2.14C270.947,175.266,271.905,174.641,272.111,173.664z"/>
					<path style="fill:#D4D4D4;" d="M257.09,211.829c-0.639-0.767-1.778-0.871-2.545-0.232s-0.871,1.778-0.232,2.545
						c0.639,0.767,1.778,0.871,2.545,0.232C257.625,213.736,257.729,212.596,257.09,211.829z"/>
					<path style="fill:#D4D4D4;" d="M260.954,222.893c-0.639-0.767-1.778-0.871-2.545-0.232c-0.767,0.639-0.871,1.778-0.232,2.545
						s1.778,0.871,2.545,0.232C261.489,224.799,261.593,223.66,260.954,222.893z"/>
					<path style="fill:#D4D4D4;" d="M256.356,200.249c-0.639-0.767-1.778-0.871-2.545-0.232s-0.871,1.778-0.232,2.545
						c0.639,0.767,1.778,0.871,2.545,0.232C256.891,202.155,256.995,201.016,256.356,200.249z"/>
					<path style="fill:#D4D4D4;" d="M276.068,237.552c-0.997,0.032-1.78,0.866-1.748,1.864c0.032,0.997,0.867,1.78,1.864,1.748
						c0.997-0.032,1.78-0.867,1.748-1.864C277.899,238.303,277.065,237.52,276.068,237.552z"/>
					<path style="fill:#D4D4D4;" d="M287.168,241.309c-0.997,0.032-1.78,0.867-1.748,1.864c0.032,0.997,0.867,1.78,1.864,1.748
						c0.997-0.032,1.78-0.866,1.748-1.864C289,242.06,288.165,241.277,287.168,241.309z"/>
					<path style="fill:#D4D4D4;" d="M266.484,231.01c-0.997,0.032-1.78,0.867-1.748,1.864c0.032,0.997,0.867,1.78,1.864,1.748
						c0.997-0.032,1.78-0.867,1.748-1.864C268.316,231.76,267.482,230.977,266.484,231.01z"/>
					<path style="fill:#D4D4D4;" d="M308.25,238.183c-0.594,0.802-0.424,1.934,0.378,2.527c0.802,0.594,1.934,0.424,2.527-0.378
						c0.594-0.802,0.424-1.934-0.378-2.527C309.975,237.211,308.843,237.38,308.25,238.183z"/>
					<path style="fill:#D4D4D4;" d="M317.519,231.892c-0.594,0.802-0.424,1.934,0.378,2.527c0.802,0.594,1.934,0.424,2.527-0.378
						c0.594-0.802,0.424-1.934-0.378-2.527C319.244,230.921,318.113,231.09,317.519,231.892z"/>
					<path style="fill:#D4D4D4;" d="M297.303,241.259c-0.594,0.802-0.424,1.934,0.378,2.527c0.802,0.594,1.934,0.424,2.527-0.378
						c0.594-0.802,0.424-1.934-0.378-2.527C299.029,240.287,297.897,240.456,297.303,241.259z"/>
					<path style="fill:#D4D4D4;" d="M327.135,213.815c0.239,0.969,1.219,1.56,2.187,1.321c0.969-0.239,1.56-1.219,1.321-2.188
						c-0.239-0.969-1.219-1.56-2.187-1.321C327.487,211.867,326.896,212.846,327.135,213.815z"/>
					<path style="fill:#D4D4D4;" d="M328.351,203.082c0.239,0.969,1.219,1.56,2.187,1.321c0.969-0.239,1.56-1.219,1.321-2.187
						c-0.239-0.969-1.219-1.56-2.187-1.321S328.112,202.113,328.351,203.082z"/>
					<path style="fill:#D4D4D4;" d="M323.457,224.547c0.239,0.969,1.219,1.56,2.187,1.321c0.969-0.239,1.56-1.219,1.321-2.188
						c-0.239-0.969-1.219-1.56-2.187-1.321C323.809,222.599,323.218,223.579,323.457,224.547z"/>
					<path style="fill:#D4D4D4;" d="M322.127,183.292c0.911,0.407,1.98-0.002,2.387-0.913c0.407-0.911-0.002-1.98-0.913-2.387
						c-0.911-0.407-1.98,0.002-2.387,0.913C320.807,181.817,321.216,182.885,322.127,183.292z"/>
					<path style="fill:#D4D4D4;" d="M313.923,175.135c0.911,0.407,1.98-0.001,2.387-0.913c0.407-0.911-0.002-1.98-0.913-2.387
						c-0.911-0.407-1.98,0.001-2.387,0.913C312.603,173.66,313.012,174.728,313.923,175.135z"/>
					<path style="fill:#D4D4D4;" d="M326.924,193.365c0.911,0.407,1.98-0.002,2.387-0.913c0.407-0.911-0.001-1.98-0.913-2.387
						c-0.911-0.407-1.98,0.002-2.387,0.913C325.604,191.889,326.013,192.958,326.924,193.365z"/>
					<path style="fill:#D4D4D4;" d="M292.748,168.427c0.884-0.462,1.227-1.554,0.765-2.438c-0.462-0.884-1.554-1.227-2.438-0.765
						c-0.884,0.462-1.227,1.554-0.765,2.438C290.772,168.547,291.863,168.889,292.748,168.427z"/>
					<path style="fill:#D4D4D4;" d="M281.541,170.389c0.884-0.462,1.227-1.554,0.765-2.438c-0.462-0.884-1.554-1.227-2.438-0.765
						c-0.884,0.462-1.227,1.554-0.765,2.438C279.565,170.508,280.656,170.851,281.541,170.389z"/>
					<path style="fill:#D4D4D4;" d="M304.442,170.08c0.884-0.462,1.227-1.554,0.765-2.438c-0.462-0.884-1.554-1.227-2.438-0.765
						c-0.884,0.462-1.227,1.554-0.765,2.438C302.466,170.2,303.558,170.542,304.442,170.08z"/>
				</g>
				<g>
					
						<rect x="261.536" y="179.944" transform="matrix(0.7071 -0.7071 0.7071 0.7071 -50.2714 238.8841)" style="fill:#B9B9B9;" width="3.373" height="0.361"/>
					
						<rect x="255.255" y="189.838" transform="matrix(0.7071 -0.7071 0.7071 0.7071 -59.1068 237.3404)" style="fill:#B9B9B9;" width="3.373" height="0.361"/>
					
						<rect x="268.656" y="173.112" transform="matrix(0.7071 -0.7071 0.7071 0.7071 -43.3546 241.9173)" style="fill:#B9B9B9;" width="3.373" height="0.361"/>
					
						<rect x="254.015" y="212.805" transform="matrix(0.7071 -0.7071 0.7071 0.7071 -75.7103 243.1905)" style="fill:#B9B9B9;" width="3.373" height="0.361"/>
					
						<rect x="257.879" y="223.869" transform="matrix(0.7071 -0.7071 0.7071 0.7071 -82.4022 249.1561)" style="fill:#B9B9B9;" width="3.373" height="0.361"/>
					
						<rect x="253.281" y="201.224" transform="matrix(0.7071 -0.7071 0.7071 0.7071 -67.7365 239.2796)" style="fill:#B9B9B9;" width="3.373" height="0.361"/>
					
						<rect x="274.439" y="239.178" transform="matrix(0.7071 -0.7071 0.7071 0.7071 -88.3766 265.3566)" style="fill:#B9B9B9;" width="3.373" height="0.361"/>
					
						<rect x="285.54" y="242.934" transform="matrix(0.7071 -0.7071 0.7071 0.7071 -87.7816 274.3062)" style="fill:#B9B9B9;" width="3.373" height="0.361"/>
					
						<rect x="264.856" y="232.635" transform="matrix(0.7071 -0.7071 0.7071 0.7071 -86.557 256.6638)" style="fill:#B9B9B9;" width="3.373" height="0.361"/>
					
						<rect x="308.016" y="239.077" transform="matrix(0.7071 -0.7071 0.7071 0.7071 -78.4708 289.0695)" style="fill:#B9B9B9;" width="3.373" height="0.361"/>
					
						<rect x="317.285" y="232.786" transform="matrix(0.7071 -0.7071 0.7071 0.7071 -71.309 293.7733)" style="fill:#B9B9B9;" width="3.373" height="0.361"/>
					
						<rect x="297.07" y="242.153" transform="matrix(0.7071 -0.7071 0.7071 0.7071 -83.852 282.2301)" style="fill:#B9B9B9;" width="3.373" height="0.361"/>
					
						<rect x="327.203" y="213.201" transform="matrix(0.7071 -0.7071 0.7071 0.7071 -54.5538 295.0587)" style="fill:#B9B9B9;" width="3.373" height="0.361"/>
					
						<rect x="328.419" y="202.468" transform="matrix(0.7071 -0.7071 0.7071 0.7071 -46.6087 292.7742)" style="fill:#B9B9B9;" width="3.373" height="0.361"/>
					
						<rect x="323.525" y="223.933" transform="matrix(0.7071 -0.7071 0.7071 0.7071 -63.2191 295.6078)" style="fill:#B9B9B9;" width="3.373" height="0.361"/>
					
						<rect x="321.178" y="181.462" transform="matrix(0.7071 -0.7071 0.7071 0.7071 -33.876 281.5011)" style="fill:#B9B9B9;" width="3.373" height="0.361"/>
					
						<rect x="312.974" y="173.305" transform="matrix(0.7071 -0.7071 0.7071 0.7071 -30.511 273.3109)" style="fill:#B9B9B9;" width="3.373" height="0.361"/>
					
						<rect x="325.975" y="191.535" transform="matrix(0.7071 -0.7071 0.7071 0.7071 -39.5935 287.8435)" style="fill:#B9B9B9;" width="3.373" height="0.361"/>
					
						<rect x="290.224" y="166.645" transform="matrix(0.7071 -0.7071 0.7071 0.7071 -32.465 255.2743)" style="fill:#B9B9B9;" width="3.373" height="0.361"/>
					
						<rect x="279.018" y="168.606" transform="matrix(0.7071 -0.7071 0.7071 0.7071 -37.1342 247.9244)" style="fill:#B9B9B9;" width="3.373" height="0.361"/>
					
						<rect x="301.919" y="168.298" transform="matrix(0.7071 -0.7071 0.7071 0.7071 -30.2086 264.0279)" style="fill:#B9B9B9;" width="3.373" height="0.361"/>
				</g>
			</g>
		</g>
		<path style="opacity:0.33;fill:#FFFFFF;" d="M402.933,94.497c0,0-9.86-8.065-51.431-1.324
			c-43.908,7.12-71.777,34.117-90.755,52.885c-24.554,24.282-65.048,80.156-84.189,127.717l0,0
			C176.558,273.775,264.908,88.424,402.933,94.497z"/>
		<polygon style="opacity:0.33;fill:#FFFFFF;" points="181.616,278.694 177.245,282.988 175.712,281.49 180.015,277.16 		"/>
		<g style="opacity:0.48;">
			<defs>
				<path id="SVGID_00000119803337629906626330000007032763038121392817_" style="opacity:0.48;" d="M404.692,145.799
					c6.407-41.533-1.759-51.302-1.759-51.302s-9.86-8.065-51.431-1.324c-43.908,7.12-71.777,34.117-90.755,52.885
					c-19.591,19.374-49.328,58.858-70.272,98.186c-5.306,9.964-10.048,19.917-13.917,29.531l24.428,23.918l24.177,24.171
					c47.505-19.498,103.162-60.37,127.291-85.072C371.104,217.7,397.925,189.667,404.692,145.799z"/>
			</defs>
			<clipPath id="SVGID_00000007398494843698180970000000974795701924044441_">
				<use xlink:href="#SVGID_00000119803337629906626330000007032763038121392817_"  style="overflow:visible;"/>
			</clipPath>
			
				<linearGradient id="SVGID_00000033362350932083546490000002645157462194400951_" gradientUnits="userSpaceOnUse" x1="452.4097" y1="295.3249" x2="307.9954" y2="205.1447">
				<stop  offset="0" style="stop-color:#1D262D"/>
				<stop  offset="1" style="stop-color:#1D262D;stop-opacity:0"/>
			</linearGradient>
			
				<path style="clip-path:url(#SVGID_00000007398494843698180970000000974795701924044441_);fill:url(#SVGID_00000033362350932083546490000002645157462194400951_);" d="
				M225.163,321.864c0,0,176.268-89.335,177.77-227.367l49.745,21.832L288.051,369.843
				C288.051,369.843,254.865,357.381,225.163,321.864z"/>
		</g>
		
			<linearGradient id="SVGID_00000068649770467586281840000008681526445048899484_" gradientUnits="userSpaceOnUse" x1="245.784" y1="289.8139" x2="260.7313" y2="323.2996">
			<stop  offset="0" style="stop-color:#1D262D"/>
			<stop  offset="1" style="stop-color:#1D262D;stop-opacity:0"/>
		</linearGradient>
		<path style="fill:url(#SVGID_00000068649770467586281840000008681526445048899484_);" d="M225.163,321.864l3.481,12.663
			c0,0,33.899-16.712,54.678-43.731l0,0C283.322,290.797,245.8,313.3,225.163,321.864z"/>
		<path style="opacity:0.33;fill:#FFFFFF;" d="M209.807,372.681c10.421-10.208,14.33-20.071,15.013-21.955
			c-0.156,0.396-0.508,1.174-1.272,2.458c-2.324,4.269-5.768,8.9-10.678,14.339c-6.257,6.931-15.332,16.134-16.657,20.106
			c-0.247,0.844-0.123,1.386,0.257,1.73c0.003,0.002,0.004,0.005,0.007,0.006C196.483,389.341,198.245,384.006,209.807,372.681z"/>
	</g>
</g>
<g id="DESIGNED_BY_FREEPIK">
	<g>
		<g>
			<g id="XMLID_197_">
				<g id="XMLID_216_">
					<path id="XMLID_224_" style="fill:#A5B7C6;" d="M260.104,472.112c-0.432,0.443-0.803,0.931-1.108,1.453l-0.465-0.241
						c-0.067-0.298-0.349-0.502-0.659-0.466c-0.331,0.039-0.568,0.339-0.529,0.67c0.039,0.331,0.339,0.568,0.67,0.529
						c0.066-0.008,0.127-0.026,0.184-0.052l0.451,0.234c-0.251,0.554-0.433,1.139-0.539,1.744l0.746,0.132
						c0.23-1.306,0.85-2.507,1.792-3.473L260.104,472.112z"/>
					<path id="XMLID_223_" style="fill:#A5B7C6;" d="M265.592,469.81c-0.171,0-0.341,0.006-0.51,0.017l-0.074-0.626
						c0.188-0.149,0.296-0.389,0.266-0.645c-0.046-0.393-0.402-0.674-0.795-0.628c-0.393,0.046-0.674,0.402-0.628,0.795
						c0.03,0.254,0.189,0.461,0.404,0.564l0.074,0.624c-0.714,0.116-1.403,0.332-2.06,0.646l0.327,0.684
						c0.934-0.447,1.942-0.673,2.995-0.673c0.496,0,0.993,0.053,1.475,0.158l0.161-0.741
						C266.692,469.868,266.142,469.81,265.592,469.81z"/>
					<path id="XMLID_222_" style="fill:#A5B7C6;" d="M272.194,472.357c0.331-0.04,0.566-0.341,0.526-0.672
						c-0.04-0.331-0.341-0.566-0.672-0.526c-0.309,0.038-0.535,0.304-0.53,0.609l-0.416,0.363c-0.418-0.43-0.889-0.813-1.408-1.139
						l-0.404,0.641c1.134,0.715,2.021,1.726,2.563,2.925l0.69-0.313c-0.251-0.554-0.568-1.072-0.942-1.545l0.402-0.351
						C272.065,472.362,272.129,472.365,272.194,472.357z"/>
					<path id="XMLID_221_" style="fill:#A5B7C6;" d="M265.044,480.018c-0.386,0.023-0.775,0.035-1.157,0.035
						c-0.88,0-1.733-0.061-2.478-0.179c-0.39-0.062-0.846-0.155-1.27-0.292c1.046,1.861,3.069,3.125,5.388,3.125
						c2.855,0,5.262-1.916,5.95-4.504c-0.682,0.449-1.505,0.825-2.459,1.123C267.839,479.693,266.463,479.933,265.044,480.018z"/>
					<path id="XMLID_217_" style="fill:#A5B7C6;" d="M265.592,471.326c-3.352,0-6.08,2.666-6.08,5.944
						c0,0.426,0.046,0.849,0.137,1.261c0.673,0.483,2.706,0.89,5.348,0.731c2.879-0.173,5.297-0.957,6.672-2.159
						c-0.006-0.195-0.021-0.39-0.045-0.582C271.244,473.559,268.65,471.326,265.592,471.326z M263.432,477.841
						c-1.02,0-1.85-0.83-1.85-1.85c0-1.02,0.83-1.85,1.85-1.85c1.02,0,1.85,0.83,1.85,1.85
						C265.282,477.011,264.452,477.841,263.432,477.841z M268.17,476.932c-0.75,0-1.36-0.61-1.36-1.36c0-0.75,0.61-1.361,1.36-1.361
						c0.75,0,1.361,0.61,1.361,1.361C269.53,476.322,268.92,476.932,268.17,476.932z"/>
				</g>
				<path id="XMLID_214_" style="fill:#A5B7C6;" d="M281.595,473.193c-0.295-0.116-0.805-0.309-1.382-0.237
					c-0.551,0.068-0.844,0.34-0.844,1.007v0.866h2.228v1.717h-2.228V482h-1.932v-5.455h-1.34v-1.717h1.34v-0.888
					c0-1.68,0.896-2.783,2.568-2.783c0.643,0,1.157,0.122,1.59,0.308L281.595,473.193z"/>
				<path id="XMLID_212_" style="fill:#A5B7C6;" d="M286.298,476.525c-0.177-0.03-0.358-0.046-0.526-0.046
					c-0.895,0-1.51,0.548-1.51,1.613V482h-1.932v-7.172h1.873v0.785c0.451-0.674,1.14-0.977,2.021-0.977
					c0.414,0,0.848,0.128,1.094,0.337L286.298,476.525z"/>
				<path id="XMLID_209_" style="fill:#A5B7C6;" d="M293.965,478.403c0,0.222-0.015,0.489-0.037,0.651h-5.085
					c0.207,1.036,0.933,1.488,1.843,1.488c0.622,0,1.295-0.252,1.813-0.688l1.133,1.243c-0.814,0.748-1.85,1.088-3.057,1.088
					c-2.198,0-3.723-1.495-3.723-3.753c0-2.257,1.48-3.797,3.627-3.797C292.544,474.636,293.958,476.168,293.965,478.403z
					 M288.851,477.737h3.175c-0.177-0.918-0.733-1.436-1.562-1.436C289.554,476.301,289.021,476.849,288.851,477.737z"/>
				<path id="XMLID_206_" style="fill:#A5B7C6;" d="M301.618,478.403c0,0.222-0.015,0.489-0.037,0.651h-5.085
					c0.207,1.036,0.932,1.488,1.843,1.488c0.622,0,1.295-0.252,1.814-0.688l1.132,1.243c-0.814,0.748-1.85,1.088-3.057,1.088
					c-2.198,0-3.723-1.495-3.723-3.753c0-2.257,1.48-3.797,3.627-3.797C300.197,474.636,301.611,476.168,301.618,478.403z
					 M296.504,477.737h3.175c-0.178-0.918-0.733-1.436-1.562-1.436C297.207,476.301,296.674,476.849,296.504,477.737z"/>
				<path id="XMLID_203_" style="fill:#A5B7C6;" d="M309.964,478.41c0,2.154-1.495,3.775-3.471,3.775
					c-0.962,0-1.643-0.378-2.109-0.933v3.708h-1.924v-10.133h1.887v0.792c0.466-0.585,1.155-0.984,2.139-0.984
					C308.469,474.636,309.964,476.257,309.964,478.41z M304.287,478.41c0,1.132,0.747,1.976,1.843,1.976
					c1.14,0,1.85-0.881,1.85-1.976c0-1.095-0.711-1.976-1.85-1.976C305.035,476.434,304.287,477.278,304.287,478.41z"/>
				<path id="XMLID_200_" style="fill:#A5B7C6;" d="M313.067,472.482c0,0.696-0.54,1.229-1.236,1.229
					c-0.696,0-1.229-0.533-1.229-1.229c0-0.696,0.533-1.243,1.229-1.243C312.527,471.238,313.067,471.786,313.067,472.482z
					 M312.809,482h-1.932v-7.172h1.932V482z"/>
				<path id="XMLID_198_" style="fill:#A5B7C6;" d="M316.032,477.382l2.702-2.554h2.368l-3.479,3.375l3.501,3.797h-2.376
					l-2.716-2.901V482H314.1v-10.658h1.932V477.382z"/>
			</g>
			<g>
				<path style="fill:#A5B7C6;" d="M184.412,481.935v-1.055c-0.527,0.718-1.391,1.23-2.387,1.23c-1.846,0-3.149-1.406-3.149-3.706
					c0-2.256,1.289-3.721,3.149-3.721c0.952,0,1.816,0.469,2.387,1.245v-3.765h1.099v9.77H184.412z M184.412,480.016v-3.208
					c-0.395-0.615-1.245-1.143-2.124-1.143c-1.421,0-2.27,1.172-2.27,2.739c0,1.567,0.85,2.724,2.27,2.724
					C183.168,481.129,184.017,480.632,184.412,480.016z"/>
				<path style="fill:#A5B7C6;" d="M186.932,478.39c0-2.051,1.465-3.706,3.486-3.706c2.139,0,3.398,1.67,3.398,3.794v0.279h-5.727
					c0.088,1.333,1.025,2.446,2.549,2.446c0.805,0,1.626-0.322,2.182-0.893l0.527,0.718c-0.703,0.703-1.655,1.084-2.812,1.084
					C188.44,482.111,186.932,480.602,186.932,478.39z M190.403,475.593c-1.509,0-2.256,1.274-2.314,2.358h4.643
					C192.718,476.896,192.015,475.593,190.403,475.593z"/>
				<path style="fill:#A5B7C6;" d="M194.607,480.997l0.571-0.791c0.469,0.542,1.362,1.011,2.329,1.011
					c1.084,0,1.67-0.513,1.67-1.216c0-1.714-4.38-0.659-4.38-3.281c0-1.098,0.952-2.036,2.636-2.036
					c1.201,0,2.051,0.454,2.622,1.026l-0.513,0.762c-0.424-0.513-1.201-0.894-2.109-0.894c-0.967,0-1.567,0.483-1.567,1.113
					c0,1.553,4.38,0.527,4.38,3.281c0,1.187-0.952,2.139-2.783,2.139C196.306,482.111,195.325,481.759,194.607,480.997z"/>
				<path style="fill:#A5B7C6;" d="M201.477,473.117c0-0.41,0.337-0.747,0.732-0.747c0.41,0,0.747,0.337,0.747,0.747
					c0,0.41-0.337,0.732-0.747,0.732C201.814,473.849,201.477,473.527,201.477,473.117z M201.667,481.935v-7.075h1.099v7.075
					H201.667z"/>
				<path style="fill:#A5B7C6;" d="M204.582,483.751l0.556-0.82c0.586,0.703,1.289,0.967,2.3,0.967c1.172,0,2.27-0.571,2.27-2.124
					v-1.011c-0.513,0.718-1.377,1.26-2.373,1.26c-1.845,0-3.149-1.377-3.149-3.662c0-2.27,1.289-3.677,3.149-3.677
					c0.952,0,1.802,0.469,2.373,1.245v-1.069h1.098v6.87c0,2.344-1.641,3.076-3.369,3.076
					C206.237,484.806,205.417,484.572,204.582,483.751z M209.709,479.899v-3.091c-0.381-0.615-1.23-1.143-2.109-1.143
					c-1.421,0-2.27,1.128-2.27,2.695c0,1.553,0.849,2.695,2.27,2.695C208.478,481.056,209.328,480.514,209.709,479.899z"/>
				<path style="fill:#A5B7C6;" d="M217.413,481.935v-4.629c0-1.245-0.63-1.641-1.582-1.641c-0.865,0-1.685,0.527-2.095,1.099v5.17
					h-1.099v-7.075h1.099v1.025c0.498-0.586,1.465-1.201,2.519-1.201c1.48,0,2.256,0.747,2.256,2.285v4.966H217.413z"/>
				<path style="fill:#A5B7C6;" d="M219.932,478.39c0-2.051,1.465-3.706,3.486-3.706c2.139,0,3.398,1.67,3.398,3.794v0.279h-5.727
					c0.088,1.333,1.025,2.446,2.549,2.446c0.806,0,1.626-0.322,2.183-0.893l0.527,0.718c-0.703,0.703-1.655,1.084-2.812,1.084
					C221.441,482.111,219.932,480.602,219.932,478.39z M223.404,475.593c-1.509,0-2.256,1.274-2.314,2.358h4.643
					C225.718,476.896,225.015,475.593,223.404,475.593z"/>
				<path style="fill:#A5B7C6;" d="M233.35,481.935v-1.055c-0.527,0.718-1.392,1.23-2.388,1.23c-1.846,0-3.149-1.406-3.149-3.706
					c0-2.256,1.289-3.721,3.149-3.721c0.952,0,1.817,0.469,2.388,1.245v-3.765h1.098v9.77H233.35z M233.35,480.016v-3.208
					c-0.396-0.615-1.245-1.143-2.124-1.143c-1.421,0-2.27,1.172-2.27,2.739c0,1.567,0.849,2.724,2.27,2.724
					C232.105,481.129,232.954,480.632,233.35,480.016z"/>
				<path style="fill:#A5B7C6;" d="M239.692,481.935v-9.77h1.098v3.765c0.572-0.776,1.421-1.245,2.388-1.245
					c1.845,0,3.149,1.465,3.149,3.721c0,2.299-1.304,3.706-3.149,3.706c-0.996,0-1.86-0.513-2.388-1.23v1.055H239.692z
					 M242.9,481.129c1.436,0,2.285-1.157,2.285-2.724c0-1.568-0.85-2.739-2.285-2.739c-0.864,0-1.728,0.527-2.109,1.143v3.208
					C241.171,480.632,242.036,481.129,242.9,481.129z"/>
				<path style="fill:#A5B7C6;" d="M247.528,483.707c0.161,0.073,0.425,0.117,0.601,0.117c0.483,0,0.805-0.161,1.055-0.747
					l0.469-1.069l-2.959-7.148h1.187l2.358,5.801l2.344-5.801h1.201l-3.545,8.51c-0.425,1.025-1.143,1.421-2.08,1.435
					c-0.234,0-0.601-0.044-0.806-0.103L247.528,483.707z"/>
			</g>
		</g>
	</g>
</g>
</svg>
